<?xml version="1.0" standalone="no"?>
<!DOCTYPE svg PUBLIC "-//W3C//DTD SVG 1.1//EN" "http://www.w3.org/Graphics/SVG/1.1/DTD/svg11.dtd" >
<svg xmlns="http://www.w3.org/2000/svg">
<metadata>
Created by FontForge 20120731 at Thu Jul 13 09:37:32 2017
 By admin
</metadata>
<defs>
<font id="iconfont" horiz-adv-x="1024" >
  <font-face 
    font-family="iconfont"
    font-weight="500"
    font-stretch="normal"
    units-per-em="1024"
    panose-1="2 0 6 3 0 0 0 0 0 0"
    ascent="896"
    descent="-128"
    x-height="792"
    bbox="-0.0833333 -212 1229 896.263"
    underline-thickness="0"
    underline-position="0"
    unicode-range="U+0078-E89A"
  />
<missing-glyph 
 />
    <glyph glyph-name=".notdef" 
 />
    <glyph glyph-name=".notdef" 
 />
    <glyph glyph-name=".null" horiz-adv-x="0" 
 />
    <glyph glyph-name="nonmarkingreturn" horiz-adv-x="341" 
 />
    <glyph glyph-name="x" unicode="x" horiz-adv-x="1001" 
d="M281 543q-27 -1 -53 -1h-83q-18 0 -36.5 -6t-32.5 -18.5t-23 -32t-9 -45.5v-76h912v41q0 16 -0.5 30t-0.5 18q0 13 -5 29t-17 29.5t-31.5 22.5t-49.5 9h-133v-97h-438v97zM955 310v-52q0 -23 0.5 -52t0.5 -58t-10.5 -47.5t-26 -30t-33 -16t-31.5 -4.5q-14 -1 -29.5 -0.5
t-29.5 0.5h-32l-45 128h-439l-44 -128h-29h-34q-20 0 -45 1q-25 0 -41 9.5t-25.5 23t-13.5 29.5t-4 30v167h911zM163 247q-12 0 -21 -8.5t-9 -21.5t9 -21.5t21 -8.5q13 0 22 8.5t9 21.5t-9 21.5t-22 8.5zM316 123q-8 -26 -14 -48q-5 -19 -10.5 -37t-7.5 -25t-3 -15t1 -14.5
t9.5 -10.5t21.5 -4h37h67h81h80h64h36q23 0 34 12t2 38q-5 13 -9.5 30.5t-9.5 34.5q-5 19 -11 39h-368zM336 498v228q0 11 2.5 23t10 21.5t20.5 15.5t34 6h188q31 0 51.5 -14.5t20.5 -52.5v-227h-327z" />
    <glyph glyph-name="fuwuzhongxin" unicode="&#xe6df;" 
d="M386 346zM348 346.5q0 15.5 11.5 26.5t27 11t26.5 -11t11 -26.5t-11 -26.5t-26.5 -11t-27 11t-11.5 26.5zM512 346zM474 346.5q0 15.5 11 26.5t27 11t27 -11t11 -26.5t-11 -26.5t-27 -11t-27 11t-11 26.5zM638 346zM600 346.5q0 15.5 11 26.5t26.5 11t27 -11t11.5 -26.5
t-11.5 -26.5t-27 -11t-26.5 11t-11 26.5zM275 -148q-25 0 -36 23q-11 24 5 43q36 43 35 131q-74 55 -115 137t-41 174q0 105 52.5 194.5t142 141.5t194.5 52t194.5 -52t142 -141.5t52.5 -195t-52.5 -195t-142 -141.5t-194.5 -52h-13q-19 -33 -49.5 -57.5t-57 -35.5
t-56 -17.5t-41.5 -7.5t-20 -1zM512 667q-127 0 -217.5 -90t-90.5 -218q0 -77 36.5 -145t100.5 -111q17 -11 18 -32q3 -76 -11 -124q65 24 90 82q5 12 16.5 19t24.5 5q16 -1 33 -1q127 0 217.5 90t90.5 217.5t-90.5 217.5t-217.5 90z" />
    <glyph glyph-name="iconjia" unicode="&#xe620;" 
d="M903 229h-332v-332q0 -25 -17.5 -42t-41.5 -17t-41.5 17t-17.5 42v332h-332q-24 0 -41.5 17t-17.5 41.5t17.5 41.5t41.5 17h332v333q0 24 17.5 41t41.5 17t41.5 -17t17.5 -41v-333h332q24 0 41.5 -17t17.5 -41.5t-17.5 -41.5t-41.5 -17z" />
    <glyph glyph-name="youhui" unicode="&#xe6c2;" 
d="M303 366h201v-47h-201v47zM303 452h201v-47h-201v47zM553 366h200v-47h-200v47zM512 810q-104 0 -198.5 -40.5t-162.5 -108.5t-108.5 -162.5t-40.5 -198t40.5 -198t108.5 -162.5t162.5 -108.5t198.5 -40.5t198.5 40.5t163 108.5t108.5 162.5t40 198t-40 198t-108.5 162.5
t-163 108.5t-198.5 40.5zM303 278v-17h-49v232h250v48h-306v45h306v59h49v-59h305v-45h-305v-48h249v-215h-249v-56q88 1 173 2q-16 15 -26 23l37 28q74 -60 129 -113l-42 -33q-26 28 -53 54q-183 -3 -569 -14l-4 51q156 0 306 2v56h-201zM594 89l-42 -33q-35 44 -78 89
l37 28q52 -47 83 -84zM232 -14q-23 13 -47 26q39 58 67 133l49 -19q-34 -82 -69 -140zM704 36q-14 -61 -95 -61h-170q-88 0 -88 86v83h53v-78q0 -42 49 -42h147q48 0 55 31q6 27 9 68q8 -4 52 -21q-5 -38 -12 -66zM829 -4q-34 47 -88 112l39 29q38 -41 93 -109zM553 452h200
v-47h-200v47z" />
    <glyph glyph-name="dache" unicode="&#xe621;" 
d="M990 392q0 21 -22.5 35.5t-55.5 14.5q-20 0 -38 -6l-59 168q-4 6 -10 20.5t-11.5 20t-15.5 5.5h-93l-13 68q-4 14 -19.5 21t-33.5 7h-212q-18 0 -33.5 -7t-19.5 -21l-13 -68h-93q-8 0 -14 -5t-9 -9.5t-8 -16.5t-6 -15l-59 -168q-18 6 -38 6q-33 0 -55.5 -14.5
t-22.5 -35.5t22.5 -36t55.5 -15h0.5h0.5v-1.5v-1.5q-2 -41 13 -146t25 -154q5 -25 14.5 -33t27.5 -8h79q16 0 25 12t9 29v44q18 -2 33 -3q195 -12 344 0q15 1 33 3v-44q0 -17 9 -29t25 -12h79q16 0 27 11.5t15 29.5q15 42 37 156t14 148q28 3 47 17t19 33zM248 174
q-33 0 -56.5 24t-23.5 58t23.5 58t56.5 24t56 -24t23 -58t-23 -58t-56 -24zM646 406q-46 -6 -125 -5t-114 5l-137 16q-17 0 -28 12t-11 29l19 80q6 22 14 30.5t24 8.5h450q16 0 24 -8.5t14 -30.5l19 -80q0 -17 -11 -29t-27 -12q-4 -2 -111 -16zM791 174q-33 0 -56 24t-23 58
t23 58t56 24t56.5 -24t23.5 -58t-23.5 -58t-56.5 -24z" />
    <glyph glyph-name="kuaiqiang" unicode="&#xe622;" 
d="M847 537q0 29 -21 49.5t-52 20.5h-59q-1 83 -61 141t-145 58t-145 -58t-61 -141h-53q-30 0 -51.5 -20.5t-21.5 -49.5l-49 -502q0 -29 21.5 -49.5t51.5 -20.5h622q30 0 51.5 20.5t21.5 49.5zM421 93l48 140h-73l208 199l-61 -152h85zM340 607q1 68 50 116t119 48
t119.5 -48t49.5 -116h-338z" />
    <glyph glyph-name="suishendai" unicode="&#xe623;" 
d="M835 715q-44 45 -135 69.5t-187.5 24.5t-187 -24.5t-135 -69.5t-68.5 -138t-24 -191.5t24 -191t68.5 -138t135 -70t187 -24.5t187.5 24.5t135 69.5q12 12 23 29q-11 2 -31 7t-35.5 8.5t-25.5 4.5q-22 3 -139 -21t-136 -26q-23 -2 -49 10.5t-57.5 34t-40.5 26.5
q-16 9 -55.5 34t-71.5 45l-31 21v3t0.5 7.5t2.5 10t5.5 10.5t10 8.5t16.5 4t24 -2.5q28 -7 69.5 -24.5t67.5 -31.5l27 -15q3 -1 8 -2l20 -4t29.5 -4.5t32.5 -1t32 4.5q79 24 100 45q18 19 10 30q-3 4 -9 3q-33 -5 -87.5 -8.5t-88.5 2.5q-23 7 -34.5 30t-0.5 41q40 2 134 23
q22 5 48.5 11.5t37.5 9.5t25.5 4.5t25 -0.5t22.5 -7l42.5 -22t83 -37.5t82.5 -24.5q14 126 -9 246.5t-78 176.5zM625 477q0 -15 -10.5 -25.5t-24.5 -10.5h-304q-14 0 -24.5 10.5t-10.5 25.5v4q0 15 10.5 25.5t24.5 10.5h304q14 0 24.5 -10.5t10.5 -25.5v-4zM625 630
q0 -15 -10.5 -25.5t-24.5 -10.5h-304q-14 0 -24.5 10.5t-10.5 25.5v4q0 15 10.5 25.5t24.5 10.5h304q14 0 24.5 -10.5t10.5 -25.5v-4z" />
    <glyph glyph-name="xiaoyuanyiqiatong" unicode="&#xe624;" 
d="M212 578q-24 -145 -100 -298v-107q5 7 21.5 32t21 31.5t16 25.5t16.5 28.5t12 23t12 26.5v-340h108v388q48 -84 91 -141v116q-2 2 -12.5 21.5t-13 24.5t-12 23t-13.5 27t-11.5 26.5t-11.5 30t-9 29t-8 33.5h66v82h-66v108h-108l1 -108h-91v-82h91zM913 70
q-132 46 -200 106q91 93 134 228h-99q-10 -34 -28.5 -66.5t-31.5 -49l-39 -49.5q-66 73 -99 165h-91q24 -76 53.5 -129.5t71.5 -98.5q-66 -57 -199 -102v-74q161 52 264 119q91 -59 264 -116v67zM913 619v83h-198v66h-107v-66h-190v-83h495zM616 578h-99
q-11 -37 -37.5 -58.5t-77.5 -40.5v-50q89 8 140.5 43.5t74.5 108.5zM913 482q-49 16 -75 36t-40 60h-99q20 -70 70 -104t144 -46v54z" />
    <glyph glyph-name="zhaocaibao" unicode="&#xe625;" 
d="M959 360q0 84 -57 148.5t-134 64.5q-58 0 -123 -61q-25 -23 -104.5 -68t-120.5 -47q-104 -4 -184.5 46t-108.5 146q-17 33 -19 87q0 17 -9 17t-15 -15q0 -1 -3.5 -8t-6 -14t-5.5 -20t-3 -28q-2 -30 -1 -61q4 -105 46.5 -201t109.5 -164.5t158 -107t188 -33.5q97 4 183 53
t152 128l5 5q52 66 52 133zM371 734q66 7 117.5 -35.5t57.5 -106.5q3 -33 -8 -62q-13 -15 -30 -27t-33 -19t-32.5 -12t-30.5 -7t-25 -3t-17 -0.5t-6 1.5q-57 6 -87.5 28.5t-49.5 55.5q-1 6 -1 11q-6 64 36.5 116.5t108.5 59.5z" />
    <glyph glyph-name="yulebao" unicode="&#xe627;" 
d="M599 110h-166v215h161q81 0 121.5 -25t40.5 -81q0 -109 -157 -109zM433 665h126q85 0 126 -20t41 -80q0 -28 -13 -51q-16 -31 -48 -42.5t-90 -11.5h-142v205zM179 681h79v-73h-79v73zM179 546h79v-76h-79v76zM179 420h79v-72h-79v72zM179 292h79v-76h-79v76zM179 156h79
v-72h-79v72zM770 395q115 52 115 165q0 55 -11 84t-32 53.5t-48 40.5q-32 19 -72 25q-40 7 -96 7h-368v-30h-79v24q-17 -5 -28 -16q-22 -21 -22 -71v-586q0 -49 22 -71q10 -11 28 -16v24h79v-30h354q61 0 106 6q46 6 81 20q56 24 89 74.5t33 113.5q0 136 -151 183z" />
    <glyph glyph-name="wodebaozhang" unicode="&#xe628;" 
d="M472 79q0 -27 -19 -45.5t-46 -18.5t-46.5 18.5t-19.5 45.5q0 19 -14 33t-34.5 14t-34.5 -14t-14 -33q0 -66 47.5 -113t115 -47t115.5 47t48 113v229h-98v-229zM542 735l-5 24q0 10 -7 16.5t-16.5 6.5t-16.5 -6.5t-7 -16.5l-7 -24q-115 -5 -210 -60t-149 -145.5
t-54 -196.5h24q11 30 45 49.5t78 19.5t78 -19.5t46 -49.5h48q11 30 45.5 49.5t78 19.5t78 -19.5t45.5 -49.5h48q12 30 46 49.5t78 19.5t78 -19.5t45 -49.5h24q0 106 -54.5 196.5t-149 145t-209.5 60.5z" />
    <glyph glyph-name="shibai" unicode="&#xe629;" 
d="M513 821q-91 0 -174 -35.5t-143.5 -95.5t-96 -143t-35.5 -174.5t35.5 -174.5t96 -143t143.5 -95.5t174 -35.5t174 35.5t143 95.5t95.5 143t35.5 174.5t-35.5 174.5t-95.5 143t-143 95.5t-174 35.5zM691 239q9 -9 9 -22t-9.5 -22.5t-22.5 -9.5t-22 9l-133 134l-133 -134
q-10 -9 -23 -9t-22 9.5t-9 22.5t9 22l133 133l-133 133q-9 10 -9 23t9 22t22 9t23 -9l133 -133l133 133q9 9 22 9t22.5 -9t9.5 -22t-9 -23l-134 -133z" />
    <glyph glyph-name="jingshi" unicode="&#xe62b;" 
d="M513 820q-91 0 -174 -35.5t-143 -95.5t-95 -143t-35 -174t35 -173.5t95 -142.5t143 -95.5t174 -35.5t173.5 35.5t142.5 95.5t95.5 142.5t35.5 173.5t-35.5 174t-95.5 143t-142.5 95.5t-173.5 35.5zM475 583q0 14 10.5 25t25 11t25 -11t10.5 -25v-273q0 -15 -10.5 -25.5
t-25 -10.5t-25 10.5t-10.5 25.5v273zM511 125q-21 0 -36 15t-15 36.5t15 36.5t36 15t35.5 -15t14.5 -36.5t-14.5 -36.5t-35.5 -15z" />
    <glyph glyph-name="tishi" unicode="&#xe62e;" 
d="M513 832q-91 0 -174 -35.5t-143 -95.5t-95 -143t-35 -174t35 -173.5t95 -142.5t143 -95.5t174 -35.5t173.5 35.5t142.5 95.5t95.5 142.5t35.5 173.5t-35.5 174t-95.5 143t-142.5 95.5t-173.5 35.5zM513.5 635q23.5 0 40 -16.5t16.5 -40t-16.5 -40t-39.5 -16.5t-40 16.5
t-17 40t16.5 40t40 16.5zM563 142h-40q-15 0 -28.5 11t-13.5 23v229h-14q-16 0 -27 11t-11 26.5t11 26.5t27 11h47q33 -3 33 -25v-238h16q15 0 26 -11t11 -26.5t-11 -26.5t-26 -11z" />
    <glyph glyph-name="bangzhu" unicode="&#xe62f;" 
d="M513 833q-91 0 -174 -35.5t-143.5 -95.5t-96 -143t-35.5 -174.5t35.5 -174.5t96 -143t143.5 -95.5t174 -35.5t174 35.5t143 95.5t95.5 143t35.5 174.5t-35.5 174.5t-95.5 143t-143 95.5t-174 35.5zM511 161q-19 0 -32.5 14t-13.5 33.5t13.5 33.5t32.5 14t32.5 -14
t13.5 -33.5t-13.5 -33.5t-32.5 -14zM640.5 459.5q-9.5 -18.5 -23.5 -31.5q-12 -13 -47 -45q-9 -9 -15 -15.5t-8.5 -12.5t-4 -11.5t-4.5 -19.5q-6 -30 -33 -30q-15 0 -24.5 10t-9.5 29q0 24 7 42t19 31t32 32q18 16 26 24t13 18t5 22q0 23 -16.5 39t-42.5 16q-30 0 -44.5 -16
t-24.5 -47q-9 -33 -36 -33q-15 0 -26 11.5t-11 24.5q0 28 17 56t49.5 46t75.5 18q41 0 71.5 -15t47.5 -41.5t17 -57.5q0 -25 -9.5 -43.5z" />
    <glyph glyph-name="dengdai" unicode="&#xe630;" 
d="M511.5 833q-91.5 0 -174.5 -35.5t-143 -95.5t-95.5 -143t-35.5 -174.5t35.5 -174.5t95.5 -143t143 -95.5t174.5 -35.5t174.5 35.5t143 95.5t95.5 143t35.5 174.5t-35.5 174.5t-95.5 143t-143 95.5t-174.5 35.5zM673 154q-11 -11 -27 -11t-26 11l-133 133q-5 5 -7 13
t-2 12.5v19.5q0 21 -5 265q0 16 11 27t26.5 11t26.5 -11t11 -27v-265l31 -31.5t62.5 -62.5l31.5 -31q11 -11 11 -26.5t-11 -26.5z" />
    <glyph glyph-name="shoujitongxunlu" unicode="&#xe632;" 
d="M814 807h-599q-36 0 -61.5 -25.5t-25.5 -61.5v-114h17q15 0 25 -11t10 -25.5t-10 -25.5t-25 -11h-17v-109h17q15 0 25 -11t10 -25.5t-10 -25.5t-25 -11h-17v-110h17q15 0 25 -11t10 -25.5t-10 -25.5t-25 -11h-17v-113q0 -36 25.5 -61.5t61.5 -25.5h599q36 0 58 25t22 62
v665q0 37 -22 62t-58 25zM697 112q-35 -20 -109.5 33.5t-137.5 162.5q-42 74 -60.5 144t-13 113t27.5 56q3 2 14 8.5t15.5 9t15 7t16.5 4.5t15 -1t16 -6.5t14.5 -15t13.5 -24.5q12 -27 15 -45.5t-4 -30.5t-14 -18t-24 -15q-4 -3 -6 -4q-32 -19 36 -137.5t100 -99.5q3 1 7 3
q16 10 25 13.5t23 3.5t28 -12t32 -36q9 -13 13.5 -24.5t6 -20t-2 -17t-7 -13.5t-12.5 -11.5t-13.5 -9.5t-15.5 -9t-14 -8z" />
    <glyph glyph-name="shezhi" unicode="&#xe633;" 
d="M511.5 564q-74.5 0 -127 -52.5t-52.5 -126.5t52.5 -126.5t127 -52.5t127 52.5t52.5 126.5t-52.5 126.5t-127 52.5zM511.5 250q-55.5 0 -95 39.5t-39.5 95t39.5 95t95 39.5t95 -39.5t39.5 -95t-39.5 -95t-95 -39.5zM960 295v179l-130 22q-6 19 -15 35l77 107l-127 127
l-107 -77q-16 9 -35 15l-22 130h-179l-22 -130q-14 -4 -35 -15l-107 76l-126 -126l76 -107q-9 -17 -15 -35l-130 -22v-179l130 -21q7 -21 16 -37l-77 -106l127 -127l107 76q20 -9 34 -13l22 -130h179l22 130q20 6 36 15l107 -77l127 127l-77 107q10 20 14 35zM787 286
q-4 -11 -11 -27q-12 -24 4 -46l54 -77l-73 -73l-76 55q-11 9 -26 9q-11 0 -21 -6q-13 -7 -29 -12q-26 -8 -30 -35l-16 -93h-103l-15 93q-5 28 -32 36q-11 3 -28 11q-9 4 -19 4q-14 0 -26 -8l-76 -55l-73 73l54 76q16 23 3 47q-7 12 -12 29q-8 26 -35 31l-93 15v103l93 16
q27 4 35 31q5 14 11 28q13 24 -3 46l-54 76l73 72l76 -53q11 -9 26 -9q10 0 20 5q17 9 28 12q27 8 32 36l15 92h103l16 -92q4 -28 31 -36q14 -4 26 -11q10 -6 22 -6q15 0 26 9l77 55l73 -73l-55 -76q-17 -24 -3 -49q7 -11 11 -26q8 -27 36 -31l92 -16v-103l-92 -15
q-28 -5 -36 -32z" />
    <glyph glyph-name="gengduo" unicode="&#xe63a;" 
d="M140 460q-31 0 -53 -21.5t-22 -52.5t22 -53t53 -22t52.5 22t21.5 53t-21.5 52.5t-52.5 21.5zM512 460q-31 0 -52.5 -21.5t-21.5 -52.5t21.5 -53t52.5 -22t53 22t22 53t-22 52.5t-53 21.5zM885 460q-31 0 -53 -21.5t-22 -52.5t22 -53t53 -22t52.5 22t21.5 53t-21.5 52.5
t-52.5 21.5z" />
    <glyph glyph-name="shuji" unicode="&#xe64e;" 
d="M888 683q-7 7 -17 7v0l-69 -1v34q0 12 -8.5 19t-19.5 5l-263 -54l-263 47q-10 2 -18.5 -5.5t-8.5 -18.5v-28l-69 -1q-10 0 -17 -7t-7 -17v-616q0 -10 7 -17t17 -7v0l719 2q10 0 17 7t7 17v617q0 10 -7 17zM535 81v569l220 44v-568zM268 688l220 -39v-569l-220 39v569z
M175 640h46v-541q0 -8 5.5 -14.5t13.5 -8.5l30 -5l-95 -1v570zM848 72h-118l53 11q9 2 14 8.5t5 14.5v536h46v-570zM441 598l-121 23q-7 1 -12 -2.5t-6.5 -10t2.5 -12t10 -6.5l122 -23h2q14 0 16 13q1 6 -2.5 11.5t-10.5 6.5zM441 515l-121 22q-7 2 -12 -2t-6.5 -10.5
t2.5 -11.5t10 -6l122 -23h2q14 0 16 13q1 6 -2.5 11.5t-10.5 6.5zM441 431l-121 23q-7 1 -12 -2.5t-6.5 -10t2.5 -12t10 -6.5l122 -23h2q14 0 16 13q1 6 -2.5 11.5t-10.5 6.5zM441 348l-121 22q-7 2 -12 -2t-6.5 -10.5t2.5 -11.5t10 -6l122 -23h2q14 0 16 12q1 7 -2.5 12.5
t-10.5 6.5zM441 264l-121 23q-7 1 -12 -2.5t-6.5 -10t2.5 -12t10 -6.5l122 -23h2q14 0 16 13q1 6 -2.5 11.5t-10.5 6.5zM441 181l-121 22q-7 2 -12 -2t-6.5 -10.5t2.5 -11.5t10 -7l122 -22h2q14 0 16 12q1 7 -2.5 12.5t-10.5 6.5zM703 626l-122 -26q-6 -1 -9.5 -6.5
t-2.5 -11.5q3 -13 16 -13q1 0 3 1l121 25q7 2 10.5 7.5t2 11.5t-7 9.5t-11.5 2.5zM703 543l-122 -26q-6 -2 -9.5 -7.5t-2.5 -11.5q3 -12 16 -12h3l121 26q7 1 10.5 6.5t2 12t-7 10t-11.5 2.5zM703 459l-122 -26q-6 -1 -9.5 -6.5t-2.5 -11.5q3 -13 16 -13h3l121 26
q7 2 10.5 7.5t2 11.5t-7 9.5t-11.5 2.5zM703 376l-122 -26q-6 -2 -9.5 -7.5t-2.5 -11.5q3 -12 16 -12h3l121 26q7 1 10.5 6.5t2 12t-7 10t-11.5 2.5zM703 292l-122 -26q-6 -1 -9.5 -6.5t-2.5 -11.5q3 -13 16 -13h3l121 26q7 2 10.5 7.5t2 11.5t-7 9.5t-11.5 2.5zM703 208
l-122 -25q-6 -2 -9.5 -7.5t-2.5 -11.5q3 -12 16 -12h3l121 26q7 1 10.5 6.5t2 12t-7 10t-11.5 1.5z" />
    <glyph glyph-name="chongwu" unicode="&#xe64f;" 
d="M943 395l-112 207q-22 56 -72.5 91t-112.5 35h-271q-67 0 -119.5 -40t-71.5 -103l-103 -190q-28 -53 -11 -110t70 -85q20 -11 44 -15q18 -63 70.5 -103.5t120.5 -40.5h271q67 0 120 40.5t71 103.5q26 3 47 15q53 28 70 85t-11 110zM162 241q-36 19 -47.5 57.5t7.5 74.5
l54 99v-232v-2.5v-2.5q-8 3 -14 6zM798 240q0 -63 -44.5 -107.5t-107.5 -44.5h-271q-63 0 -107.5 44.5t-44.5 107.5v289q0 63 44.5 107.5t107.5 44.5h271q63 0 107.5 -44.5t44.5 -107.5v-289zM909.5 298.5q-11.5 -38.5 -47.5 -57.5q-8 -4 -17 -7v3v3v238l57 -105
q19 -36 7.5 -74.5zM314.5 494q-19.5 0 -33 -13.5t-13.5 -33t13.5 -33t33 -13.5t33 13.5t13.5 33t-13.5 33t-33 13.5zM706.5 494q-19.5 0 -33.5 -13.5t-14 -33t14 -33t33.5 -13.5t33 13.5t13.5 33t-13.5 33t-33 13.5zM616 203q-32 0 -55 23t-23 55q0 4 -1 8q26 15 26 45
q0 22 -15.5 37.5t-37 15.5t-37 -15.5t-15.5 -37.5q0 -30 26 -45q-1 -4 -1 -8q0 -32 -23 -55t-55 -23q-9 0 -16 -6.5t-7 -16.5t7 -16.5t16 -6.5q33 0 61 15.5t44 42.5q17 -27 45 -42.5t61 -15.5q9 0 16 6.5t7 16.5t-7 16.5t-16 6.5z" />
    <glyph glyph-name="bangong1" unicode="&#xe652;" 
d="M552 -106q-69 0 -118 46t-49 110v525q0 50 36 86t87 36t87 -36t36 -86v-454q0 -12 -8.5 -20.5t-20.5 -8.5t-20.5 8.5t-8.5 20.5v454q0 26 -19 45.5t-46 19.5t-46 -19.5t-19 -45.5v-525q0 -40 32 -69t77 -29q126 0 126 167v506q0 69 -49 118t-118 49t-118 -49t-49 -118
v-506q0 -12 -8.5 -20.5t-20.5 -8.5t-20.5 8.5t-8.5 20.5v506q0 93 66 159t159 66t159 -66t66 -159v-506q0 -107 -48 -166t-136 -59z" />
    <glyph glyph-name="weixiu" unicode="&#xe654;" 
d="M811 832h-12q-36 0 -65 -22t-40 -55h-416q-14 0 -22 -12l-151 -232q-9 -13 -1.5 -26.5t23.5 -13.5h247v-427q0 -44 31.5 -75.5t75.5 -31.5h40q44 0 75.5 31.5t31.5 75.5v427h66q11 -34 40 -55.5t65 -21.5h12q46 0 78.5 32.5t32.5 77.5v217q0 46 -32.5 78.5t-78.5 32.5z
M292 702h397v-179h-514zM575 44q0 -23 -16 -39t-38 -16h-40q-23 0 -39 16t-16 39v427h149v-427zM870 504q0 -24 -17 -41t-42 -17h-12q-24 0 -41 17t-17 41v217q0 24 17 41t41 17h12q25 0 42 -17t17 -41v-217z" />
    <glyph glyph-name="haizi" unicode="&#xe655;" 
d="M743 502q16 42 16 85q0 101 -72.5 173t-174 72t-173.5 -72t-72 -173q0 -41 13 -80q-42 -48 -42 -111v-285q0 -72 52.5 -123t125.5 -51h183q75 0 130 51.5t55 122.5v285q0 58 -41 106zM501 327l-15 15q14 -1 27 -1h2.5h2.5zM513 777q79 0 134.5 -56t55.5 -134
q0 -75 -51 -130l-33 -29q-48 -32 -106 -32q-79 0 -135 56t-56 134.5t56 134.5t135 56zM333 419q3 -5 5 -7l122 -121l-169 -146v251q0 30 15 57q12 -18 27 -34zM731 111q0 -49 -39 -85t-93 -36h-183q-42 0 -75.5 25t-44.5 63q5 2 7 5l352 303q19 14 35 31l3 2q2 2 5 6
q11 13 19 24q14 -25 14 -53v-285zM415 616q3 -1 5 -1q13 0 17 13l15 55q2 7 -1.5 13.5t-10.5 8.5t-13.5 -1.5t-8.5 -10.5l-15 -56q-2 -7 1.5 -13.5t10.5 -7.5zM500 616q3 -1 5 -1q13 0 17 13l15 55q2 7 -1.5 13.5t-10.5 8.5t-13.5 -1.5t-8.5 -10.5l-15 -56q-2 -7 1.5 -13.5
t10.5 -7.5zM585 616q3 -1 5 -1q13 0 17 13l15 55q2 7 -1.5 13.5t-10.5 8.5t-13.5 -1.5t-8.5 -10.5l-15 -56q-2 -7 1.5 -13.5t10.5 -7.5zM414.5 495q12.5 0 21 8.5t8.5 20.5t-8.5 20.5t-21 8.5t-21 -8.5t-8.5 -20.5t8.5 -20.5t21 -8.5zM582 524q0 -12 8.5 -20.5t20.5 -8.5
t20.5 8.5t8.5 20.5t-8.5 20.5t-20.5 8.5t-20.5 -8.5t-8.5 -20.5z" />
    <glyph glyph-name="changbei" unicode="&#xe656;" 
d="M875 584q0 11 -7.5 19t-18.5 8h-110q-24 98 -86.5 160t-141 62t-141 -62t-86.5 -160h-110q-11 0 -19 -8t-8 -19t8 -18.5t19 -7.5h101q-3 -27 -3 -49q0 -74 24 -141q-58 -14 -95.5 -61t-37.5 -107v-237q0 -11 8 -19t19 -8h643q11 0 19 8t8 19v237q0 60 -37.5 107t-95.5 61
q24 67 24 141q0 22 -3 49h101q11 0 18.5 7.5t7.5 18.5zM698 509q0 -73 -26 -136q-2 -6 -9 -20q-16 52 -56.5 82.5t-95.5 30.5t-95 -30.5t-56 -82.5l-10 20q-25 63 -25 136q0 23 3 49h367q3 -26 3 -49zM619 288q0 -40 -33 -94.5t-75 -102.5q-41 48 -74.5 102.5t-33.5 94.5
q0 57 29.5 91t79 34t78.5 -34t29 -91zM511.5 779q57.5 0 104.5 -46.5t68 -121.5h-345q21 75 68 121.5t104.5 46.5zM806 200v-211h-590v211q0 44 29.5 77.5t72.5 40.5q15 -27 34 -50q4 -35 24 -76t47 -76t42.5 -53t26.5 -30q8 -8 19.5 -8t19.5 8q11 12 26.5 30t42 53t46.5 76
t25 76q19 23 34 50q43 -7 72 -40.5t29 -77.5zM392 465q12 0 21 9t9 21t-9 21t-21 9t-21 -9t-9 -21t9 -21t21 -9zM630.5 465q12.5 0 21 9t8.5 21t-8.5 21t-21 9t-21 -9t-8.5 -21t8.5 -21t21 -9zM485 322v-12q0 -11 7.5 -18.5t18.5 -7.5t19 7.5t8 18.5v12q0 11 -8 19t-19 8
t-18.5 -8t-7.5 -19z" />
    <glyph glyph-name="liwu" unicode="&#xe657;" 
d="M899 633h-181q17 29 17 63q0 46 -30 79.5t-83 33.5q-52 0 -87 -35q-17 -17 -29 -44q-12 26 -29 44q-35 35 -87 35q-53 0 -85 -36q-28 -32 -28 -77q0 -34 17 -63h-169q-11 0 -19 -7.5t-8 -19.5v-245q0 -11 8 -19t19 -8h37v-346q0 -12 8 -19.5t19 -7.5h249h148h249
q11 0 19 7.5t8 19.5v346h37q11 0 19 8t8 19v245q0 12 -8 19.5t-19 7.5zM574 736q19 19 48 19q30 0 44.5 -17.5t14.5 -41.5q0 -26 -15 -44q-16 -18 -44 -19l-86 1q7 71 38 102zM331 696q0 25 15 42t44 17t48 -19q30 -31 37 -103h-37h-48q-31 0 -45 20t-14 43zM152 579h238h21
v-191h-259v191zM216 334h195v-319h-195v319zM465 15v564h38h56v-564h-94zM808 15h-195v319h195v-319zM872 388h-259v191h9v0h250v-191z" />
    <glyph glyph-name="lijin" unicode="&#xe658;" 
d="M653 337q-22 3 -49 -6q-8 26 -30 43t-50 17h-24q-27 0 -49 -16t-30 -41q-20 8 -37 8q-15 0 -31 -6q-22 -8 -31.5 -34t-3.5 -60q10 -57 59.5 -98t128.5 -41q46 0 85 15.5t63 39.5t37.5 51t15.5 52q2 31 -13 52t-41 24zM500 341h24q12 0 21.5 -7.5t12.5 -18.5
q-25 -7 -52 -7q-22 0 -41 6q3 12 13 19.5t22 7.5zM506 152q-59 0 -94 27t-44 65q-4 13 -3.5 23.5t2.5 16t4 6.5q7 3 13 3q9 0 30 -11q47 -23 92 -23q48 0 102 21q27 10 38 9q13 -2 12 -25q-3 -40 -44 -76t-108 -36zM792 686v48q0 10 -7.5 17.5t-17.5 7.5h-512
q-10 0 -17 -7.5t-7 -17.5v-48q-34 -6 -57 -32.5t-23 -61.5v-553q0 -39 28 -67t68 -28h529q39 0 67 28t28 67v553q0 35 -22.5 61.5t-56.5 32.5zM822 592v-63h-30v106q13 -5 21.5 -16.5t8.5 -26.5zM743 688v-159h-22v180h22v-21zM672 688v-159h-21v180h21v-21zM280 709h321
v-180h-321v180zM231 635v-106h-31v63q0 15 8.5 26.5t22.5 16.5zM776 -7h-529q-20 0 -33.5 13.5t-13.5 32.5v441h622v-441q0 -19 -13.5 -32.5t-32.5 -13.5z" />
    <glyph glyph-name="juanzeng" unicode="&#xe65a;" 
d="M877 677q-83 71 -207 53q-68 -11 -122 -50q-82 75 -188 75q-83 0 -149 -36.5t-107 -105.5q-21 -37 -31.5 -82t-7.5 -97t29.5 -109.5t74.5 -109.5q52 -56 111.5 -97t104 -60t89 -30t61 -12.5t26.5 -1.5q15 0 25.5 10.5t10.5 26t-10.5 26t-25.5 10.5q-7 0 -20.5 1.5
t-52 11.5t-77 27t-91 53t-98.5 85q-50 55 -70 116t-14 108.5t29 86.5q63 106 193 106q64 0 118 -40v1q6 -4 16.5 -12t33 -34.5t33.5 -56.5q10 -22 13 -39q10 -58 -13 -85q-10 -11 -26 -11q-15 0 -26 17q-10 17 -11 40.5t13 57.5q7 15 15 28q-25 36 -54 52q-16 -26 -27 -49
q-21 -43 -20 -88t22 -80q33 -51 88 -51q50 0 82 37q45 53 29 145q-9 53 -50 111q38 25 85 32q91 14 148 -35q27 -23 42 -56.5t15 -69.5q0 -41 -14.5 -80t-36.5 -67.5t-52 -55t-55.5 -42.5t-53.5 -30.5t-39.5 -19t-18.5 -7.5q-14 -5 -20.5 -19t-1.5 -28t19 -20.5t28 -1.5
q39 14 79 35.5t84 56t77.5 74t55.5 93.5t22 112q0 52 -21.5 100t-60.5 81z" />
    <glyph glyph-name="licai1" unicode="&#xe65b;" 
d="M218 97q9 -10 22 -10q2 0 4 1q15 2 22 15l144 280l129 -126q10 -9 23.5 -7.5t21.5 12.5l168 258l28 -21q18 -13 38.5 -13t35.5 13t20 34l50 206q7 30 -8 48q-10 13 -28 14.5t-37 -9.5l-177 -110q-29 -18 -30.5 -49t26.5 -52l35 -26l-151 -231l-131 129q-11 10 -25.5 8
t-21.5 -16l-142 -276l-79 90v353q0 27 19 46.5t46 19.5h388q12 0 20.5 8.5t8.5 20.5t-8.5 20.5t-20.5 8.5h-388q-51 0 -87.5 -36.5t-36.5 -87.5v-521q0 -51 36.5 -87.5t87.5 -36.5h533q51 0 87.5 36.5t36.5 87.5v333q0 12 -8.5 21t-21 9t-21 -9t-8.5 -21v-333q0 -27 -19 -46
t-46 -19h-533q-27 0 -46 19t-19 46v79zM703 630l2 2l156 96l-44 -181l-1 -1l-1 1l-110 82q-1 1 -2 1z" />
    <glyph glyph-name="gongzi" unicode="&#xe65c;" 
d="M791 690v38q0 10 -6.5 16.5t-16.5 6.5h-506q-9 0 -16 -6.5t-7 -16.5v-38h-4q-44 0 -75.5 -31.5t-31.5 -75.5v-461q0 -44 31.5 -75.5t75.5 -31.5h553q44 0 75.5 31.5t31.5 75.5v461q0 43 -30 74t-74 33zM849 583v-139h-58v200q24 -2 41 -19.5t17 -41.5zM285 705h460v-261
h-460v261zM235 644h4v-200h-61h-4v139q0 25 18 43t43 18zM788 61h-553q-25 0 -43 18t-18 43v277q2 -1 4 -1h84h506h81v-276q0 -25 -18 -43t-43 -18zM566 589q6 0 10 4t4 10t-4 10t-10 4h-30l28 29q10 10 0 20t-20 0l-35 -35l-36 35q-10 10 -20 0t0 -20l29 -29h-30
q-6 0 -10.5 -4t-4.5 -10t4.5 -10t10.5 -4h42v-29h-42q-6 0 -10.5 -4t-4.5 -10t4.5 -10t10.5 -4h42v-38q0 -6 4.5 -10.5t10 -4.5t10 4.5t4.5 10.5v38h43q6 0 10 4t4 10t-4 10t-10 4h-43v29h43z" />
    <glyph glyph-name="jianzhi" unicode="&#xe65e;" 
d="M552 737v16q0 19 -13 32t-32 13h-5q-19 0 -32 -13t-13 -32v-18q-141 -20 -235.5 -128t-94.5 -252q0 -105 51.5 -193.5t140 -140t192.5 -51.5q43 0 84 10q11 2 16.5 11t3 19t-11 15.5t-19.5 3.5q-36 -8 -73 -8q-90 0 -167 45t-121.5 121.5t-44.5 167t44.5 167.5
t121.5 121.5t167.5 44.5t167 -44.5t121.5 -121.5t45 -167q0 -37 -8 -73q-2 -10 3.5 -19t15.5 -11.5t19 3.5t11 16q10 41 10 84q0 148 -99.5 257t-244.5 125zM512 573q-11 0 -18 -7.5t-7 -17.5v-192q0 -10 7 -17.5t18 -7.5h179q11 0 18.5 7.5t7.5 18t-7.5 18t-18.5 7.5h-154
v166q0 10 -7 17.5t-18 7.5zM751.5 245q-55.5 0 -95 -39t-39.5 -94.5t39.5 -95t95 -39.5t94.5 39.5t39 95t-39 94.5t-94.5 39zM796 94q6 0 10 -4t4 -10t-4 -10.5t-10 -4.5h-30v-27q0 -6 -4 -10t-10 -4t-10 4t-4 10v27h-33q-6 0 -10 4.5t-4 10.5t4 10t10 4h33v16h-32
q-5 0 -9.5 4t-4.5 10t4.5 10t9.5 4h21l-22 22q-10 10 0 20.5t20 0.5l27 -28l27 28q10 10 20.5 -0.5t-0.5 -20.5l-21 -22h19q6 0 10.5 -4t4.5 -10t-4.5 -10t-10.5 -4h-31v-16h30z" />
    <glyph glyph-name="zidingyileimu" unicode="&#xe660;" 
d="M512 -64q-91 0 -174 36t-143 96t-95.5 142.5t-35.5 173.5t35.5 174t95.5 143t143 95.5t174 35.5t174 -35.5t143 -95.5t95.5 -143t35.5 -174t-35.5 -173.5t-95.5 -142.5t-143 -96t-174 -36zM511.5 773q-105.5 0 -195 -52t-141.5 -141.5t-52 -195t52 -195t141.5 -142
t195 -52.5t195.5 52.5t142 142t52 195t-52 195t-142 141.5t-195.5 52zM512 576l54 -115l127 -16l-93 -88l24 -125l-112 61l-112 -61l24 125l-93 88l127 16zM512 635v0q-17 0 -31.5 -9t-21.5 -25l-41 -86l-94 -12q-17 -2 -30.5 -13t-18.5 -27q-12 -36 16 -61l69 -65l-18 -94
q-7 -37 24 -59q15 -11 34 -11q15 0 29 7l83 46l83 -46q13 -7 29 -7q19 0 34 11q31 22 24 59l-18 94l69 65q27 25 16 61q-6 16 -19 27t-30 13l-94 12l-41 86q-7 16 -21.5 25t-31.5 9v0z" />
    <glyph glyph-name="tianjialeimu" unicode="&#xe662;" 
d="M511 832q-91 0 -173.5 -35.5t-142.5 -95.5t-95.5 -143t-35.5 -173.5t35.5 -173.5t95.5 -143t142.5 -95.5t173.5 -35.5t174 35.5t142.5 95.5t95 143t35.5 173.5t-35.5 173.5t-95 143t-142.5 95.5t-174 35.5zM511.5 -4q-105.5 0 -195 52t-141.5 141.5t-52 195t52 195
t141.5 141.5t195 52t194.5 -52t141 -141.5t52 -195t-52 -195t-141 -141.5t-194.5 -52zM721 414h-180v180q0 12 -9 20.5t-21 8.5t-20.5 -8.5t-8.5 -20.5v-180h-180q-12 0 -21 -8.5t-9 -21t9 -21t21 -8.5h180v-180q0 -12 8.5 -20.5t20.5 -8.5t21 8.5t9 20.5v180h180
q12 0 20.5 8.5t8.5 21t-8.5 21t-20.5 8.5z" />
    <glyph glyph-name="fuwuchuangb" unicode="&#xe665;" 
d="M631 225l-125 66l-123 -69l22 143l-101 99l138 22l61 130l63 -129l139 -19l-99 -101zM835 791h-651q-19 0 -32 -17t-13 -39v-728q0 -25 10.5 -38.5t26.5 -15t29.5 0.5t24.5 7l238 108q18 8 43.5 8.5t43.5 -7.5l253 -113q24 -10 51 2.5t27 54.5v721q0 21 -16 38.5
t-35 17.5z" />
    <glyph glyph-name="tansuoa" unicode="&#xe667;" 
d="M798 209q0 -72 -34 -112q-56 -48 -125 -72q25 46 -1 108q-15 37 -101 126q-11 11 -12.5 24.5t3.5 39.5l1 4q2 15 7 22.5t25.5 15.5t61.5 14q28 5 41 -3t28 -30q3 -5 5 -8q7 -10 14.5 -16.5t12.5 -9.5t15 -7q17 -8 29 -15q21 -11 25.5 -26t4.5 -50v-5zM512 766
q88 0 167 -38q-65 -40 -84 -66q-6 -8 -16 -24q-14 -20 -21.5 -27.5t-17.5 -8.5q-7 -1 -28 0q-15 1 -30 1t-29 -7t-19 -22q-8 -14 -4.5 -50.5t20.5 -56.5q6 -7 2 -23q-5 -16 -13 -22q-5 2 -19 19q-32 36 -55 43q-7 2 -26 6q-53 11 -59 24q-5 10 -5 39q0 39 -9 60
q-11 23 -37 32q54 57 127.5 89t155.5 32zM838 645q0 1 -1.5 2.5t-5.5 4t-8 2.5q-7 0 -12 -5t-5 -11l3 -10q89 -106 89 -243q0 -120 -70 -218q3 21 3 42v5q0 21 -0.5 31.5t-4.5 26t-14 27t-27 20.5q-13 8 -32 16q-12 5 -16.5 8.5t-11.5 13.5q-1 2 -5 7q-5 7 -7.5 11
t-8.5 11.5t-11 10.5t-13.5 8.5t-16.5 6t-20.5 2.5t-25.5 -2q-64 -10 -90 -27t-32 -53v-4q-6 -25 -3.5 -49t21.5 -43q81 -84 94 -116q20 -49 1 -81q-16 -27 -64 -33q-18 -2 -32 -2q-105 0 -194 51t-140.5 139t-51.5 191q0 128 78 230q24 0 31 -16q7 -14 7 -46q0 -36 8 -53
q6 -13 21 -22.5t27 -12.5t34 -8q17 -3 24 -5q13 -4 38 -33q10 -11 15 -16t13 -10t16 -5q26 0 41 34q19 40 -4 66q-10 13 -12 39.5t2 34.5q4 10 45 7q23 -1 34 0q15 2 27 10.5t18 16.5l18 24q9 14 15 22q18 24 89 67q18 11 21 13q1 1 2.5 3.5t1 6.5t-6.5 7q-100 60 -217 60
q-114 0 -211 -55.5t-153 -150.5t-56 -207.5t56 -208t153 -151t211 -55.5t210.5 55.5t152.5 151t56 207.5q0 146 -93 260z" />
    <glyph glyph-name="tansuob" unicode="&#xe668;" 
d="M639 132q-16 37 -102 126q-11 11 -12 24.5t3 39.5l1 4q2 15 7 22.5t25.5 15.5t61.5 14q29 5 42 -3t27 -30q3 -4 5 -8q7 -10 14.5 -16.5t12.5 -9.5t16 -7q16 -8 29 -15q20 -11 24.5 -26t4.5 -50v-5q0 -72 -34 -112q-56 -48 -125 -72q25 46 0 108zM512 765q88 0 167 -38
q-65 -40 -84 -66q-6 -8 -16 -24q-14 -20 -21.5 -27.5t-17.5 -8.5q-7 -1 -27 0q-16 1 -30.5 1t-28.5 -7t-20 -22q-8 -14 -4.5 -50.5t20.5 -56.5q7 -7 2 -23q-4 -16 -13 -22q-4 2 -19 19q-32 36 -54 43q-8 2 -27 6q-52 11 -59 24q-4 10 -4 39q0 39 -10 60q-10 23 -36 31
q54 58 127 90t155 32zM92 384.5q0 -112.5 56.5 -208t153 -151t210.5 -55.5t210.5 55.5t153 151t56.5 208t-56.5 207.5t-153 150.5t-210.5 55.5t-210.5 -55.5t-153 -150.5t-56.5 -207.5z" />
    <glyph glyph-name="search2" unicode="&#xe63d;" 
d="M887 91l-110 109q-7 8 -18 8t-18 -8l-3 -3q-54 54 -56 55q69 85 69 195q0 129 -91.5 220t-220.5 91t-220 -91t-91 -220t91 -220t220 -91q110 0 195 68l55 -55l-3 -3q-8 -8 -8 -18.5t8 -18.5l109 -109q8 -8 18.5 -8t18.5 8l55 54q7 8 7 18.5t-7 18.5zM439.5 255
q-79.5 0 -135.5 56.5t-56 135.5t56 135t135.5 56t135.5 -56t56 -135t-56 -135.5t-135.5 -56.5z" />
    <glyph glyph-name="meizhuang" unicode="&#xe626;" 
d="M713 152v82q0 12 -9.5 20.5t-23.5 8.5h-18l1 306l-299 113v-419h-18q-13 0 -22.5 -8.5t-9.5 -20.5v-82h-37v-250h475v250h-39zM405 623l217 -82l-1 -277h-216v359zM355 223h317v-70h-317v70zM711 -57h-393v168h393v-168z" />
    <glyph glyph-name="saoyisao" unicode="&#xe60c;" horiz-adv-x="1126" 
d="M717 726h239q35 0 35 -34v-205q0 -15 13.5 -22.5t32.5 -7.5q17 0 28 11t11 28v199q0 48 -34 82.5t-83 34.5h-240q-16 0 -27.5 -11.5t-11.5 -27.5q0 -18 10.5 -32.5t26.5 -14.5v0zM376 -126h-206q-35 0 -35 34v187q0 17 -14.5 32.5t-32 15.5t-27.5 -11t-10 -28v-196
q0 -49 34 -83t83 -34h196q16 0 27.5 11.5t11.5 27.5q3 16 -4.5 30t-22.5 14v0zM90 457q16 0 31 15.5t15 32.5v188q0 35 35 35h187q17 0 32.5 14.5t15.5 31.5t-11 27.5t-28 10.5h-199q-49 0 -83 -34.5t-34 -82.5v-196q0 -18 11.5 -30t27.5 -12v0zM1036 143q-17 0 -32 -15.5
t-15 -32.5v-187q0 -34 -35 -34h-237q-16 0 -26.5 -14.5t-10.5 -32.5q0 -17 11.5 -28t27.5 -11h235q49 0 83.5 34.5t34.5 82.5v199q2 15 -9 27t-27 12v0zM1083 335h-1041q-17 0 -29.5 -12.5t-12.5 -30t12.5 -29.5t29.5 -12h1041q18 0 30.5 12t12.5 29.5t-12.5 30t-30.5 12.5
v0zM1083 335z" />
    <glyph glyph-name="xuexi" unicode="&#xe62d;" 
d="M701 -31h-429q-18 0 -34.5 17.5t-24 33t-7.5 17.5v44l21 -1q21 0 32 11.5t12 23.5l1 11q0 20 -10.5 31.5t-21.5 13.5l-11 2h-22v88h21q19 0 30 11t13 21l2 11q0 22 -11 33.5t-22 13.5l-12 1h-21l-1 88l21 2q21 0 32 11t13 22l1 11q0 19 -11 30t-23 13l-11 2h-22v44
q0 9 6.5 15.5t15.5 6.5h404q9 0 15.5 -6.5t6.5 -15.5l45 -2q8 0 14 -5.5t7 -10.5l2 -6v-561q0 -16 -21 -21v0v0zM610 440h-292v-179h292v179v0v0zM678 547l-24 7v-495q0 -9 -6.5 -15.5t-15.5 -6.5h-382q0 -7 6 -12.5t11 -7.5l6 -3h381q11 0 17 6t6.5 9.5t0.5 5.5v512v0v0z
M374 395h180q4 0 7.5 -3t3.5 -7.5t-3.5 -8t-7.5 -3.5h-180q-4 0 -7.5 3.5t-3.5 8t3 7.5t8 3v0v0zM374 328h180q4 0 7.5 -3t3.5 -8t-3.5 -8t-7.5 -3h-180q-4 0 -7.5 3t-3.5 8t3.5 8t7.5 3v0v0zM251 485q0 -9 -6.5 -15.5t-16.5 -6.5h-44q-10 0 -16.5 6.5t-6.5 15.5t6.5 16
t16.5 7h44q10 0 16.5 -7t6.5 -16v0v0zM184 328h44q10 0 16.5 -6.5t6.5 -16t-6.5 -16t-16.5 -6.5h-44q-10 0 -16.5 6.5t-6.5 16t6.5 16t16.5 6.5v0v0zM184 149h44q10 0 16.5 -6.5t6.5 -16t-6.5 -16t-16.5 -6.5h-44q-10 0 -16.5 6.5t-6.5 16t6.5 16t16.5 6.5v0v0zM184 149z
" />
    <glyph glyph-name="iconfontzuoshangjiaotubiao" unicode="&#xe635;" horiz-adv-x="1229" 
d="M341 896h888v-205h-888v205zM341 486h888v-204h-888v204zM341 77h888v-205h-888v205zM0 896h205v-205h-205v205zM0 486h205v-204h-205v204zM0 77h205v-205h-205v205z" />
    <glyph glyph-name="weibiaoti203" unicode="&#xe62a;" 
d="M265 466h167v-329h-167v329zM759 137v494h-276v-113v-381h276zM512 573h219v-51h-219v51zM512 464h219v-51h-219v51zM512 355h219v-51h-219v51zM512 896q-139 0 -257 -68.5t-186.5 -186.5t-68.5 -257t68.5 -257t186.5 -186.5t257 -68.5t257 68.5t186.5 186.5t68.5 257
t-68.5 257t-186.5 186.5t-257 68.5zM810 85h-327h-51h-219v433h219v165h378v-598z" />
    <glyph glyph-name="nannvzhuang" unicode="&#xe616;" 
d="M68 547h95v-95h-95v95zM715 -21h-4h-374q-66 0 -101 41q-33 38 -28 91v206h-141v95h236l-1 -310q-1 -12 6 -20q7 -7 29 -7h379q14 1 14 34v310h134v195l-166 46q-65 -97 -191 -97q-57 0 -108.5 24t-79.5 75l-156 -41v-30h-95v104l313 81l12 -46q11 -41 49 -58
q29 -14 65 -14q27 0 49.5 8t35 17.5t22 22t12 18t3.5 7.5l15 43l316 -87v-363h-135v-215q0 -67 -39 -102q-30 -28 -71 -28zM539 415h137v-95h-137v95z" />
    <glyph glyph-name="baihuo" unicode="&#xe61b;" 
d="M303 718l34 -79l-79 -35l-35 80zM837 354l91 185h-223v52v0v8q0 54 -70 94t-200 40q-51 0 -98 -8l15 -83q39 7 83 7q53 0 97 -9.5t64.5 -20.5t24.5 -20q-4 -8 -24.5 -19t-64.5 -20.5t-97 -9.5q-54 0 -98.5 10t-64.5 21t-23 18l-62 56q0 -1 -4.5 -8t-9.5 -23t-6 -38
q1 -459 1 -464q0 -63 75.5 -104t192 -41t192.5 41t76 104v40h219zM620 122q0 -5 -7.5 -13t-23 -16.5t-37 -16t-52 -12t-65 -4.5t-65 4.5t-52 12t-37 16t-23 16.5t-7.5 13q0 6 -1 377q72 -33 185 -33q114 0 186 33q-1 -370 -1 -377zM704 246v210h90l-49 -100l50 -110h-91z
" />
    <glyph glyph-name="wujiaoxing" unicode="&#xe636;" 
d="M1010 500l-363 33l-142 343l-143 -343l-362 -33l274 -245l-81 -363l312 192l312 -192l-82 363z" />
    <glyph glyph-name="xiuxianyule" unicode="&#xe6a1;" 
d="M540 6h-81v311l225 248h-493l239 -248v-311h-80q-6 0 -10.5 -4t-4.5 -9t4.5 -8.5t10.5 -3.5h190q6 0 10 3.5t4 8.5t-4 9t-10 4v0zM540 6zM658 752q-58 -10 -93.5 -58t-29.5 -107v0q5 1 29 5v0q-4 48 24.5 86t74.5 46q49 8 90 -21.5t49 -79.5t-20.5 -91.5t-77.5 -49.5
q-30 -5 -55 4q0 -1 -5 -5.5l-10 -9t-6 -5.5l-2 -2v0q40 -18 83 -11q61 11 96.5 62t25 112.5t-61 98t-111.5 26.5v0zM658 752z" />
    <glyph glyph-name="qiaquan" unicode="&#xe60d;" 
d="M20 549q0 31 10 44t43 13h139v-574h-60q-24 0 -47 1t-32 1q-29 -2 -41 9.5t-12 44.5v165q0 12 4 18.5t16 8.5q4 0 11.5 3.5t15 11t13 19.5t5.5 29q0 27 -13.5 42t-28.5 17q-12 2 -17.5 7.5t-5.5 17.5v122v0v0zM110 658v30q0 23 17 42.5t36 19.5h149v-92h-202v0v0z
M991 409q-9 -2 -12.5 -9.5t-3.5 -17t3.5 -18t12.5 -12t13.5 -13.5t5 -21.5t-2.5 -22t-10 -15.5q-21 -13 -21 -30.5t21 -34.5q5 -4 8.5 -13t3.5 -18t-4 -16t-15 -7h-59q-6 0 -6.5 1t1.5 4t5.5 6.5t5.5 7.5q5 17 -0.5 28t-18.5 20q-8 4 -12 14t-3.5 20t4 18t9.5 12
q9 3 13.5 12.5t4.5 19.5t-3.5 18.5t-9.5 12.5q-9 5 -14 14t-5 20.5t4.5 22.5t14.5 18q6 4 10.5 12t5 17.5t-3.5 18t-13 14.5q-11 5 -16 16t-5 22.5t5 22t13 15.5q19 11 20.5 28.5t-2.5 32.5q-4 12 -13.5 21t-24.5 9h-519v91h609q7 0 12.5 -6t7 -14t-1 -16.5t-10.5 -14.5
q-6 -5 -11 -14.5t-5.5 -19t2.5 -19.5t12 -14q12 -7 18 -19t6 -24t-6 -22.5t-17 -15.5q-12 -4 -17.5 -13t-6 -19t4.5 -20t16 -17t15.5 -18t4 -22.5t-5 -21.5t-14.5 -11v0v0zM850 426q-13 -3 -20 -13t-7.5 -20t5.5 -20.5t18 -15.5q11 -4 16.5 -13.5t6 -19.5t-4 -19.5
t-13.5 -13.5q-27 -14 -28 -33.5t21 -31.5q10 -4 16 -14t6.5 -20.5t-4 -19.5t-14.5 -12q-13 -4 -20 -13t-7.5 -19.5t5.5 -20.5t19 -17q9 -5 12.5 -14.5t2.5 -19t-6 -17t-13 -7.5h-566v574h572q9 0 14 -7.5t5.5 -16.5t-4 -18t-14.5 -12.5t-15.5 -11.5t-7 -18t4 -19t18.5 -14
q10 -4 16 -13.5t6.5 -19t-4.5 -18t-16 -12.5v0v0zM590 349q-5 0 -11 1.5t-3 6.5q1 2 10 16t21 30q11 15 21 29q9 14 12 17q5 9 -7 22q-2 2 -8.5 6.5t-11.5 7.5q-9 3 -13 1t-9 -10q-2 -4 -11 -17q-7 -11 -18 -28q-9 -14 -18 -27q-8 -12 -9 -15q-2 -4 -8 -3t-8 6q-2 2 -10 13
q-9 11 -19 25q-9 13 -18 25t-13 17q-10 20 -20 13q-8 -5 -14 -10t-11 -9q-11 -8 -3 -20q17 -23 32 -43q10 -13 23 -31q10 -15 13 -17q2 -5 -5 -5h-13h-15q-11 -1 -19 0q-9 0 -14.5 -4.5t-3.5 -11.5q2 -4 2 -13v-14q0 -6 3 -6.5t7 -0.5h63q13 0 13 -6v-22q0 -5 -2 -5h-73
q-6 1 -8 -3.5t-3.5 -10.5t0.5 -11q1 -5 1 -9q0 -15 14 -15h64q6 0 7 -1.5t1 -7.5q1 -6 1 -20q-1 -16 -1 -20q0 -13 14 -13h35q8 0 8 6v46q0 11 10 11h10q7 0 16.5 1t17.5 1h14q16 0 16 11v25q0 11 -11 11h-63q-11 -3 -11 4v9q-1 5 -1 9.5t4 7t8 2.5h64q11 0 11 8v27
q0 5 -4 9.5t-9 4.5h-37v0v0zM590 349z" />
    <glyph glyph-name="ktv" unicode="&#xe63e;" 
d="M477 292q56 -31 105 -37l-191 -275q-15 -21 -42.5 -22.5t-45.5 11.5l-31 18q-21 12 -32.5 35.5t-1.5 46.5l140 307q28 -45 99 -84zM760 361q-53 -62 -116 -66l-3 1q-21 -5 -61 7t-84 38q-46 28 -76 56.5t-35 51.5l-3 1q-26 57 -3 131q62 -82 168 -144q109 -64 213 -76z
M805 427q-3 -7 -12 -20q-98 3 -220 74q-120 70 -172 153q8 17 12 24q34 61 87 92t110.5 28.5t112.5 -35.5q83 -49 107.5 -135.5t-25.5 -180.5z" />
    <glyph glyph-name="liren" unicode="&#xe63f;" horiz-adv-x="1025" 
d="M601 1q24 0 37 14.5t-1 39.5q-4 5 -10.5 14.5t-10 14.5t-10 14t-9 13.5t-7.5 14t-6 13.5t-4.5 12.5t-2 12.5t1.5 12q2 12 19 37.5t37 53t38 64.5t26 72.5t-3.5 77.5t-46.5 79v1q25 39 61 25q15 -7 30 -23q20 -21 23.5 -48t-5 -54t-21 -57t-21.5 -60t-10.5 -58.5t16 -58
t54.5 -53.5q27 -18 61 -12t63.5 23.5t54.5 43.5q-43 -7 -74.5 0t-45.5 22.5t-19 35t-0.5 37t14.5 28.5q93 102 53 197q-26 63 -95 90q-75 30 -133 -9q-20 -14 -34 -34q-87 108 -221 108q-149 0 -229 -105q-7 -8 4.5 -19.5t22.5 -25t5 -26.5q-15 -28 -30 -50.5t-26 -36
t-23.5 -24.5t-19 -14.5t-16.5 -9t-11 -6.5q-28 -16 0 -35l54 -35q0 -4 -0.5 -11t-0.5 -27t1 -38.5t5 -41t9.5 -38.5t15.5 -27t24 -11q6 0 26.5 0.5t28.5 0t26 -1.5t26.5 -2.5t22 -5.5t21.5 -9.5t15.5 -14.5t12.5 -20q19 -48 35.5 -58.5t63.5 -10.5h79.5h58.5v0z" />
    <glyph glyph-name="fangdajing-copy" unicode="&#xe607;" 
d="M161 -33l168 168l1 1q106 -86 243 -86q105 0 193.5 51.5t140 140t51.5 193t-51.5 193t-140 140t-193 51.5t-193 -51.5t-140 -140t-51.5 -193.5q0 -119 67 -216q-3 -3 -6 -5l-167 -167q-16 -16 -16 -39t16 -39.5t39 -16.5t39 16zM298 434q0 114 80.5 194.5t194.5 80.5
t194.5 -80.5t80.5 -194.5t-80.5 -194.5t-194.5 -80.5t-194.5 80.5t-80.5 194.5z" />
    <glyph glyph-name="naiping" unicode="&#xe65d;" 
d="M521 139h-181v-34h181q7 0 12 5t5 12t-5 12t-12 5zM521 248h-181v-34h181q7 0 12 5t5 12t-5 12t-12 5zM641 553h-54v55q0 28 -20 48t-48 20h-24v0q-28 0 -47.5 -20t-19.5 -48v-55h-55v0q-28 0 -48 -20t-20 -48v-19q0 -28 20 -47.5t48 -19.5h268q28 0 48 19.5t20 47.5v19
q0 28 -20 48t-48 20zM463 553h91v0h-91v0zM463 607q0 14 10 24t24 10h23q14 0 24 -10t10 -24v-54h-91v54zM677 465q0 -14 -10 -24t-24 -10h-269q-14 0 -24 10t-10 24v19q0 14 10 24t24 10h269q14 0 24 -10t10 -24v-19zM641 378h-268v0q-28 0 -48 -20t-20 -48v-264
q0 -28 20 -48t48 -20h268q28 0 48 20t20 48v264q0 28 -20 48t-48 20zM677 45q0 -15 -10 -24.5t-24 -9.5h-269q-14 0 -24 9.5t-10 24.5v264q0 14 10 24t24 10h269q14 0 24 -10t10 -24v-264z" />
    <glyph glyph-name="baoxian1" unicode="&#xe60a;" 
d="M648 777q-48 34 -84 64t-48 42l-11 13q-2 -3 -5 -8t-15.5 -19.5t-27.5 -28.5t-41 -31.5t-55 -31.5q-61 -29 -121 -46.5t-90 -19.5l-30 -3v-495q0 -32 17.5 -60t50 -51.5t66.5 -43t80.5 -46.5t78.5 -50q27 -20 50 -42.5t32.5 -34.5t9.5 -13q27 44 84 85q32 23 79.5 50
t82.5 47t68.5 44.5t51.5 53t18 61.5v495q-2 1 -14 0t-39.5 2.5t-56 9t-65 20.5t-66.5 37zM838 235q-1 -32 -16.5 -57.5t-45 -46.5t-59.5 -38t-70.5 -40.5t-68.5 -43.5q-22 -17 -40.5 -32.5t-25.5 -22.5l-7 -7q-27 26 -80 66q-28 21 -68.5 44t-70 39.5t-57.5 37t-43 45.5
t-15 56v423q15 3 41 8.5t89.5 26.5t109.5 45q28 15 51.5 35.5t32.5 32.5l10 13q-2 -3 107 -81q43 -31 99.5 -51t91.5 -25l35 -4v-423zM452 616v-13q0 -18 2 -44v-56q-2 -13 -2 -28v-28h11q17 0 56 2h32v-59h-88q-65 0 -65 5v-46q20 2 67 5h49q-53 -100 -144 -139
q35 -20 48 -35q85 65 133 165v-119q0 -56 -5 -74h50q0 4 -2 13q-3 13 -3 61v121q33 -117 129 -171q13 22 41 39q-101 45 -142 139h54q20 -2 41 -5l30 -4v48q-26 -3 -71 -3h-82v59h43q13 -2 69 -2q0 2 -2 19q-2 26 -2 44v43q0 33 4 63q-25 -5 -64 -5h-131q-30 0 -56 5z
M656 575v-87h-159v87h159zM366 228v277q43 85 47 89q2 4 11 9q6 4 9 8q-9 11 -56 29q-60 -178 -129 -241q17 -22 28 -45q7 11 24 36q17 29 27 44v-206q0 -58 -4 -76h47l-2 2q-4 13 -2 74z" />
    <glyph glyph-name="sweep" unicode="&#xe6c4;" 
d="M1003.5 166q-7.5 0 -13 -5.5t-5.5 -13.5v-109q0 -37 -26.5 -64t-64.5 -27h-109q-7 0 -12.5 -5.5t-5.5 -13t5.5 -12.5t12.5 -5h109q53 0 90.5 37t37.5 90v109q0 8 -5.5 13.5t-13 5.5zM20 602q8 0 13.5 5.5t5.5 13.5v109q0 38 26.5 64.5t64.5 26.5h109q7 0 12.5 5.5t5.5 13
t-5.5 12.5t-12.5 5h-109q-53 0 -90.5 -37t-37.5 -90v-109q0 -8 5.5 -13.5t13.5 -5.5h-1zM239 -53h-109q-38 0 -64.5 27t-26.5 64v109q0 8 -5.5 13.5t-13 5.5t-13 -5.5t-5.5 -13.5v-109q0 -53 37.5 -90t90.5 -37h109q7 0 12.5 5t5.5 12.5t-5.5 13t-12.5 5.5v0zM894 857h-109
q-7 0 -12.5 -5t-5.5 -12.5t5.5 -13t12.5 -5.5h109q38 0 64.5 -26.5t26.5 -64.5v-109q0 -8 5.5 -13.5t13 -5.5t13 5.5t5.5 13.5v109q0 53 -37.5 90t-90.5 37zM166 675h91v-291h-91v291zM312 675h54v-291h-54v291zM421 675h91v-291h-91v291zM567 675h145v-291h-145v291z
M767 675h91v-291h-91v291zM166 275h91v-182h-91v182zM312 275h54v-182h-54v182zM421 275h91v-182h-91v182zM567 275h145v-182h-145v182zM767 275h91v-182h-91v182zM985 329.5q0 7.5 -5 13t-13 5.5h-910q-8 0 -13 -5.5t-5 -13t5 -13t13 -5.5h910q8 0 13 5.5t5 13z" />
    <glyph glyph-name="xinyongqiahuankuan" unicode="&#xe638;" 
d="M870 7h-713q-38 0 -64.5 26.5t-26.5 64.5v347h895v-347q0 -38 -27 -64.5t-64 -26.5zM632 244l-36 -128h219l36 128h-219zM66 664q0 38 26.5 64.5t64.5 26.5h713q37 0 64 -26.5t27 -64.5v-91h-895v91z" />
    <glyph glyph-name="lvxingdajianghover" unicode="&#xe637;" horiz-adv-x="1134" 
d="M413 -122q7 5 11 9l94 123l-94 72zM1093 892q-20 9 -39 -1l-1003 -487q-25 -12 -26 -40.5t24 -43.5l195 -109h1zM387 111v0l648 696l-764 -624l71 -280q2 -9 10.5 -18.5t21.5 -12.5l13 239v0zM457 107l89 -72l139 -95q20 -12 41 -5q22 8 30 28l365 868q5 14 0 31z" />
    <glyph glyph-name="xiuxianyule1" unicode="&#xe642;" 
d="M739 552l-256 -236v-218q79 -3 131 -18t52 -35q0 -10 -13 -16t-45 -8.5t-57.5 -3t-78.5 -0.5h-21h-21q-54 0 -79.5 0.5t-57.5 3t-45 8.5t-13 16q0 20 52 35t130 18v217l-255 237q-10 9 -10 21.5t10 21.5h577q9 -9 9 -21.5t-9 -21.5zM723 363h-18q-15 2 -24 13t-7.5 25
t12.5 23.5t25 7.5h12q50 0 85.5 35.5t35.5 85.5t-35.5 86t-85.5 36q-47 0 -82 -31q-10 -10 -24.5 -9.5t-24 11.5t-9 25t11.5 24q54 49 128 49q79 0 135 -56t56 -135t-56 -134.5t-135 -55.5z" />
    <glyph glyph-name="zhoubianyou" unicode="&#xe643;" horiz-adv-x="1025" 
d="M512 896q-104 0 -198.5 -40.5t-163 -109t-109 -163.5t-40.5 -199t40.5 -198.5t109 -163t163 -109t198.5 -40.5t199 40.5t163.5 109t109 163t40.5 198.5t-40.5 199t-109 163.5t-163.5 109t-199 40.5zM369 628q31 0 53 -22t22 -53t-22 -53.5t-53 -22.5t-53.5 22.5
t-22.5 53.5t22.5 53t53.5 22zM791 212q-14 -24 -41 -24h-482q-13 0 -20 5t-13 17t-4 27.5t10 26.5l106 125q21 26 44.5 26.5t41.5 -20.5l41 -49q22 -19 39 -19q16 0 34 31l64 97q13 25 39 25q29 0 43 -24l97 -196q14 -24 1 -48z" />
    <glyph glyph-name="waimai1" unicode="&#xe6a2;" 
d="M966 365q-7 41 -35.5 69t-63.5 28h-273q-36 0 -61.5 -25t-25.5 -60q0 -36 3 -48h-28q-9 10 -19 23t-28.5 40.5t-29.5 56t-9 49.5q2 30 14.5 54.5t23.5 33.5l11 10v48q-3 4 -8 10t-21 18.5t-31.5 17t-36.5 -2.5t-39 -31l-112 13v-146h62q-61 -64 -111 -122
q-35 -25 -55 -63.5t-20 -82.5q0 -75 54.5 -128t131.5 -53q60 0 108 34t67 87h146q19 -53 67 -87t108 -34q77 0 131.5 53t54.5 128q0 11 -2 24q38 21 27 86zM258.5 183q-30.5 0 -52.5 21.5t-22 51.5t22 51.5t53 21.5t52.5 -21.5t21.5 -51.5t-22 -51.5t-52.5 -21.5zM755.5 183
q-30.5 0 -52.5 21.5t-22 51.5t22 51.5t52.5 21.5t52.5 -21.5t22 -51.5t-22 -51.5t-52.5 -21.5zM640 523h194q34 0 59 24.5t25 59.5v2q0 35 -25 59.5t-59 24.5h-194q-34 0 -58.5 -24.5t-24.5 -59.5v-2q0 -35 24.5 -59.5t58.5 -24.5z" />
    <glyph glyph-name="mayijubao" unicode="&#xe60e;" 
d="M657 605l72 58q9 8 10.5 20.5t-6.5 20.5q-8 10 -20 11.5t-21 -6.5l-97 -79q-4 -2 -8 -9q-7 -9 -5 -25v-1q0 -2 2 -3q0 -1 0.5 -1.5t0.5 -1.5v-2l1 -1t1 -2q1 -3 7 -5q86 -62 123.5 -115t37.5 -112q0 -97 -72.5 -168.5t-170.5 -71.5q-97 0 -170 72t-73 168q0 38 17.5 76
t46 68t51 49t46.5 35q10 7 12.5 19t-3.5 22l-9 9l-98 80q-10 8 -21.5 7t-19.5 -11t-6.5 -22t10.5 -19l71 -59q-155 -119 -155 -253q0 -78 41.5 -147t111 -110t148.5 -41t148.5 41t111 110t41.5 147q0 76 -42 136.5t-114 115.5zM508 213q-61 0 -104.5 37t-43.5 89
q0 12 8.5 20.5t20.5 8.5t20.5 -8.5t8.5 -20.5q0 -28 26.5 -48t63.5 -20t63 20t26 48q0 12 8.5 20.5t20.5 8.5t20.5 -8.5t8.5 -20.5q0 -52 -43 -89t-104 -37z" />
    <glyph glyph-name="yuebao" unicode="&#xe60f;" 
d="M827 302q-14 81 -67 153t-131 106l1 1l41 55q24 30 9 65q-6 18 -21.5 29.5t-35.5 13.5q-58 7 -111 7q-45 0 -111 -7q-20 -2 -35.5 -13.5t-21.5 -29.5q-15 -35 9 -65l41 -55l1 -1q-81 -34 -133.5 -107t-64.5 -155q-15 -105 44 -174q77 -88 271 -88q199 0 275 91
q57 67 40 174zM408 666q44 6 104 6q63 0 104 -6q6 -1 9 -5.5t0 -8.5l-41 -54q-5 -5 -12 -5h-121q-8 0 -12 5l-41 54q-4 4 -0.5 8.5t10.5 5.5zM512 96q-80 0 -134.5 15t-82 43t-37 62t-3.5 76q9 69 57.5 133t121.5 89h154q73 -24 121 -88.5t60 -133.5q7 -43 -1.5 -76.5
t-36 -61.5t-83 -43t-136.5 -15zM509 125q-9 0 -15.5 6.5t-6.5 15.5v236q0 8 6.5 14.5t15.5 6.5t15.5 -6.5t6.5 -14.5v-236q0 -10 -6.5 -16t-15.5 -6zM509 353q-9 0 -15 6l-79 72q-6 7 -6.5 15.5t5.5 15.5q7 6 15.5 6.5t15.5 -5.5l79 -72q6 -6 7 -15t-6 -15q-7 -8 -16 -8z
M509 353q-9 0 -15 6q-6 7 -6.5 15.5t5.5 15.5l72 79q6 7 15 7.5t15 -6.5q7 -6 7.5 -15t-5.5 -15l-72 -79q-5 -8 -16 -8zM610 333h-196q-9 0 -15.5 6.5t-6.5 15.5t6.5 15.5t15.5 6.5h196q9 0 15.5 -6.5t6.5 -15.5t-6.5 -15.5t-15.5 -6.5zM610 242h-196q-9 0 -15.5 6.5
t-6.5 15.5t6.5 15.5t15.5 6.5h196q9 0 15.5 -6.5t6.5 -15.5t-6.5 -15.5t-15.5 -6.5z" />
    <glyph glyph-name="mayihuabei" unicode="&#xe610;" 
d="M582 672q11 0 33.5 -11t53 -36t58 -57.5t48 -82t24.5 -104.5q5 -83 -40 -154.5t-123 -104.5q-63 -26 -124 -26q-118 0 -202.5 84t-84.5 203q0 73 34 140q12 25 36 25v0q44 0 -11 -103q-10 -19 -14.5 -47.5t1 -64.5t22 -68.5t55 -59.5t94.5 -38q17 -2 26 -2q59 0 101 46
q21 24 20 73.5t-24 87.5q0 1 -1 1.5t-1 1.5q-9 16 -41 48.5t-66 46.5q-48 22 -49 42q-1 11 16 11q24 0 60 -22q0 -1 1.5 -1.5t2.5 -1.5q17 -8 50 -18t66 -10q17 0 26 2q29 5 46 28t15 52t-23 50q-11 11 -37 26q-8 6 -24 14.5t-21 12.5q-9 6 -7 11q0 6 4 6zM582 716
q-36 0 -45 -31q-13 -34 20 -60q7 -5 28 -17q2 -2 9.5 -5.5t11.5 -6.5q23 -15 29 -20q14 -14 9 -35q-4 -19 -24 -21q-6 -1 -17 -1q-43 0 -97 23q-47 29 -83 29q-26 0 -41 -13t-18 -31q-3 -5 -0.5 -16.5t8 -23.5t23.5 -26.5t45 -26.5q25 -11 51 -37t37 -42l2 -2
q11 -19 15 -42.5t2 -41.5t-9 -25q-29 -33 -67 -33q-12 0 -19 2q-92 17 -123 83q-11 24 -14 52.5t0.5 48t9.5 31.5q27 51 33 83.5t-7 53.5q-17 30 -53 30q-24 0 -44.5 -13.5t-31.5 -35.5q-39 -79 -39 -159q0 -90 44 -166t120.5 -120.5t165.5 -44.5q70 0 142 30
q90 36 142 118.5t46 179.5q-4 60 -27 115t-54.5 93t-67 67t-65 43t-47.5 14v0zM538 603q6 0 11 -1q12 -3 19.5 -12t4.5 -17q-4 -16 -26 -16q-6 0 -10 1q-12 3 -19.5 12t-5.5 17q5 16 26 16zM538 647v0q-25 0 -44 -13.5t-24 -35.5q-8 -31 14 -57q15 -19 43 -27q14 -3 20 -3
q25 0 44 14t25 36q6 27 -10 50.5t-47 31.5q-11 4 -21 4v0z" />
    <glyph glyph-name="taopiaopiao" unicode="&#xe611;" 
d="M512 36q-95 0 -175.5 41t-127.5 111.5t-47 153.5q0 88 55.5 163.5t146.5 112.5q-34 70 -17 95q12 19 41 19q34 0 81 -22.5t80 -63.5q133 -12 223.5 -99.5t90.5 -204.5q-1 -83 -48 -153.5t-127.5 -111.5t-175.5 -41zM404 682q-6 2 -9.5 -2t-0.5 -9q9 -25 24 -54
q6 -11 2 -21t-15 -13q-87 -29 -140.5 -95.5t-53.5 -145.5q0 -107 88 -182.5t213 -75.5t213 75.5t88 182.5q0 101 -81 175.5t-200 81.5q-9 0 -17 10q-19 29 -51 48t-60 25zM762 437h-161h-4q-37 -15 -46 -24q-2 -3 -8 -3l-31 2q-19 1 -31 -2q-7 0 -8 3q-9 9 -46 24h-4h-161
q-3 0 -3 -3v-31q0 -3 3 -3q16 0 16 -9q-1 -19 0.5 -37t3.5 -26l2 -8q11 -33 48 -54q6 -3 7 -3h95q5 0 10 2.5t8.5 5.5t8.5 9t8 10.5t7 12t5.5 10.5l5 10l3.5 7q3 5 6 10.5t5 8t2 3.5l8 3q4 0 7 -3q4 -5 13 -22q0 -1 8.5 -16t14 -24t15 -18t18.5 -9h95q4 0 7 3q1 0 7.5 4
t11 7.5t10.5 9.5t11 14.5t8 18.5q1 3 2 8.5t3 24t1 38.5q0 3 2 4.5t4 2t5.5 1.5t4.5 1q3 0 3 3v31q6 3 0 3zM470 347q-6 -15 -14 -28.5t-14 -19.5l-6 -6q-6 -7 -44 -7.5t-53 7.5q-8 6 -15 15.5t-10 17.5l-2 7q-3 21 -2 38q1 11 9 19t19 9q27 2 60 0t45 -5q9 -1 25 -20
q7 -11 2 -27zM712 333q-8 -28 -27 -40q-15 -8 -53 -7.5t-44 7.5q-20 19 -34 54q-4 14 3 27q13 18 25 20q66 8 106 5q11 -1 18.5 -9t8.5 -19q0 -7 -1 -20t-2 -18z" />
    <glyph glyph-name="tianmaochaoshi" unicode="&#xe615;" 
d="M812 716h-600q-12 0 -20.5 -8.5t-8.5 -20.5v-607q0 -12 8.5 -21t20.5 -9h598q12 0 21 9t9 21v607q1 12 -7.5 20.5t-20.5 8.5zM297 118h-47q0 14 18.5 30.5t47.5 16.5h1q-6 -2 -13 -16.5t-7 -30.5zM339 118q0 16 -7 30t-13 17q28 -1 44.5 -17t16.5 -30h-41zM685 118h-41
q0 14 16.5 30t44.5 17q-6 -3 -13 -17.5t-7 -29.5zM727 118q0 16 -7.5 30.5t-12.5 16.5h1q29 0 47.5 -16.5t18.5 -30.5h-47zM783 280q-38 -40 -54 -61q-16 -19 -44 -36t-52 -21q-55 1 -121 1v0v0l-121 -1q-23 4 -50.5 21t-45.5 36q-16 21 -54 61v372q0 6 6 6h528q6 0 6 -6
v-372h2zM650 587h-22v-19h-91v-22h91v-23h-85v-143h22v121h63v-145h22v145h62v-80q0 -5 -3 -12t-7 -9l9 -20q13 5 18 18t5 21v103h-84v23h90v22h-90v20zM357 380q-2 0 -6 1.5t-6 2.5v53h49v22h-49v27h49v22h-49v40h49v22h-49v19h-22v-19h-48v-22h48v-40h-48v-22h48v-87
q-7 5 -17 16v44h-22v-68q0 -8 -8 -14l14 -18q12 9 16 26q17 -17 44 -26q8 -3 14 -3h145v22h-145q-3 2 -7 2zM401 523l6 -21q13 4 22.5 16.5t12.5 22.5t4 19h40v-28q-1 0 -2 -2.5t-2.5 -4t-4.5 -1.5l4 -22q11 2 17.5 10t7.5 15v54h-104v-21h21q-2 -11 -7.5 -22.5t-14.5 -14.5
zM405 399h76q11 0 19 7.5t8 18.5v61h-103v-87zM427 463h59v-40q0 -4 -5 -4h-54v44z" />
    <glyph glyph-name="meishi1" unicode="&#xe644;" 
d="M780 21q2 -4 3 -10.5t2 -9.5q-5 13 -5 20zM512 896q-211 0 -361.5 -150.5t-150.5 -361.5t150.5 -361.5t361.5 -150.5t361.5 150.5t150.5 361.5q-1 104 -41.5 198.5t-109 163.5t-163 109.5t-198.5 40.5zM498 465v27q0 -22 -16 -38t-38 -16v-379q0 -12 -7.5 -19.5
t-19.5 -7.5h-54q-12 0 -19.5 7.5t-7.5 19.5v379q-22 0 -38 16t-16 38v244h54v-217h27v217h54v-217h27v217h54v-271zM742 59q0 -12 -7.5 -19.5t-19.5 -7.5h-54q-12 0 -19.5 7.5t-7.5 19.5v298h-54v298q0 33 23.5 57t57.5 24t57.5 -24t23.5 -57v-596z" />
    <glyph glyph-name="yinle" unicode="&#xe631;" 
d="M512 385zM7 385q0 -103 40 -196.5t107.5 -161t161 -107.5t196.5 -40t196.5 40t161 107.5t107.5 161t40 196.5t-40 196.5t-107.5 161t-161 107.5t-196.5 40t-196.5 -40t-161 -107.5t-107.5 -161t-40 -196.5zM405 571l-1 5l288 43v-5zM389 551l-2 40l320 48l5 -40zM407 464
l-1 5l288 43v-5zM391 444l-2 40l320 48l5 -40zM406 582l2 -398zM424 582l2 -398h-36l-1 398h35zM683 201l-1 435l36 5l1 -440h-36zM333 92q-38 0 -65 27.5t-27 65.5t27 65t65 27t65 -27t27 -65t-27 -65.5t-65 -27.5zM333 241q-23 0 -39.5 -16.5t-16.5 -40t16.5 -40
t39.5 -16.5t40 16.5t17 40t-17 40t-40 16.5zM627 108q-38 0 -65 27t-27 65.5t27 65.5t65 27t65 -27t27 -65.5t-27 -65.5t-65 -27zM627 257q-23 0 -40 -16.5t-17 -40t17 -40t40 -16.5t40 16.5t17 40t-17 40t-40 16.5z" />
    <glyph glyph-name="youxi" unicode="&#xe600;" horiz-adv-x="1025" 
d="M759 498q-36 0 -111.5 -34t-117.5 -38v36q1 72 50.5 127t129.5 55h21q82 0 147.5 60t73.5 159h-37q-8 -82 -62 -132t-122 -50h-21q-63 0 -113.5 -33t-76.5 -82t-26 -102v0v-2v0v-1v0v-35q-42 4 -117.5 38t-111.5 34q-23 0 -56 -17.5t-69.5 -54.5t-67.5 -87t-51.5 -124.5
t-20.5 -157.5q0 -41 11 -72t24.5 -45.5t32 -23t28 -10t17.5 -1.5h1q47 0 92 24t99 77q54 55 84 72.5t68 17.5h54h2h54q38 0 68 -17.5t84 -72.5q54 -53 99 -77t92 -24h1q8 0 17.5 1.5t28 10t32 23t24.5 45.5t11 72q0 83 -20.5 157.5t-51.5 124.5t-67.5 87t-69.5 54.5
t-56 17.5zM366 242h-73v-73h-37v73h-73v37h73v73h37v-73h73v-37zM676.5 206q-22.5 0 -38.5 16t-16 38.5t16 39t38.5 16.5t38.5 -16.5t16 -39t-16 -38.5t-38.5 -16zM823 169q-23 0 -39 16.5t-16 39t16 38.5t39 16t39 -16t16 -38.5t-16 -39t-39 -16.5z" />
    <glyph glyph-name="pengyou1" unicode="&#xe661;" 
d="M697 221v0q-13 8 -26 11q-31 13 -53 24t-45.5 25t-36.5 29t-13 29q0 8 10.5 31.5t26.5 46.5q31 45 25 114q-5 63 -44.5 106t-97 43t-96.5 -43t-45 -106q-5 -69 25 -114q16 -24 26.5 -47.5t10.5 -30.5q0 -15 -13 -29.5t-37 -29t-45.5 -24.5t-52.5 -24q-12 -2 -26 -11h-1
q-45 -29 -45 -81v-55h598v55q0 52 -45 81zM836 248q-2 0 0 0q-7 4 -26 11q-131 55 -131 101q0 8 10 30t26 44q30 43 24 109q-4 59 -42.5 99.5t-95.5 40.5q-30 0 -59 -11l27 -25q17 5 31 5h2q42 0 72.5 -32t34.5 -80q4 -56 -20 -89q-15 -22 -28.5 -49t-13.5 -43
q0 -20 12.5 -39.5t35.5 -35.5t46.5 -28.5t56.5 -26.5l2 -1l2 -1q6 -1 16 -7l1 -1q29 -17 29 -51q0 -9 -6.5 -15.5t-15.5 -6.5l-55 -1v-30l55 1q22 0 37.5 15.5t15.5 37.5q1 50 -43 79z" />
    <glyph glyph-name="didichuhang" unicode="&#xe736;" 
d="M832 624v-157q-2 -134 -95 -227t-225 -93t-225 93t-95 227v157h640v192h-787q-20 -2 -32.5 -15.5t-12.5 -32.5v-310q0 -50 10 -103q11 -55 32 -93q19 -48 48 -86q38 -51 60 -74q7 -6 21.5 -19t20.5 -19q5 -5 16 -13t16 -13q31 -23 86 -48q48 -19 96 -28.5t102.5 -9.5
t102.5 9.5t96 29t87 47.5q25 20 31.5 26t21 19t20.5 19q40 40 61 74q29 38 48 86q6 16 32 93q10 48 10 103v166h-186z" />
    <glyph glyph-name="huafei-" unicode="&#xe6f1;" 
d="M513 167q-16 0 -27.5 -11.5t-11.5 -27.5v0q0 -16 11.5 -27.5t27.5 -11.5v0q16 0 27.5 11.5t11.5 27.5t-11.5 27.5t-27.5 11.5v0zM460 617q-7 11 -21 12q-25 -3 -27 -27q0 -10 5 -16l46 -65h-30q-16 -1 -17 -15q1 -15 17 -16h53v-20h-40q-8 0 -11 -5h-2q-16 -1 -17 -15
q1 -15 17 -16h53v-44q2 -25 27.5 -25t27.5 25v44h53q15 1 17 16q-2 14 -17 15h-2q-4 5 -11 5h-41v20h54q15 1 17 16q-2 14 -17 15h-31l46 65q6 7 6 16q-3 24 -27 27q-14 -1 -22 -12l-53 -76zM513 895q-104 0 -198.5 -40.5t-163 -109t-108.5 -163t-40 -198.5t40 -198.5
t108.5 -163t163 -109t198.5 -40.5t198.5 40.5t163 109t109 163t40.5 198.5t-40.5 198.5t-109 163t-163 109t-198.5 40.5zM720 101q0 -14 -9.5 -23t-23.5 -9h-347q-14 0 -24 9t-10 23v554q0 13 10 22.5t24 9.5h104q34 12 69 12q81 0 138.5 -57t57.5 -138t-57.5 -138.5
t-138.5 -57.5q-85 0 -143 63v-157q0 -11 8 -18.5t18 -7.5h6l1.5 -0.5t2.5 -0.5h216q1 0 2.5 0.5l1.5 0.5h4v0q10 0 18 7.5t8 18.5v0v71q14 -1 25 -1q18 0 39 3v-186v0z" />
    <glyph glyph-name="transfer-accounts" unicode="&#xe68a;" 
d="M843 683h1q-10 0 -17.5 -8.5t-7.5 -19.5v-69q-52 71 -134 113.5t-171 42.5q-129 0 -233 -83.5t-122 -204.5q-2 -10 7 -10h35q7 0 8 7q18 101 106.5 170.5t196.5 69.5t196.5 -69.5t106.5 -170.5q0 -1 0.5 -1h0.5q0 -10 7.5 -16.5t17.5 -6.5h2q11 0 19 6t8 16v206
q0 11 -8 19.5t-19 8.5zM858 307h-35q-7 0 -8 -7q-18 -101 -106.5 -170.5t-196.5 -69.5q-109 0 -198 69.5t-107 170.5l-1 0.5l-1 0.5v6q0 10 -6.5 18t-17.5 8h-1q-10 0 -18 -8t-8 -18v-207q0 -10 8 -16.5t19 -6.5h-1q11 0 18 6.5t7 16.5v64q51 -71 133.5 -113t171.5 -42
q129 0 232.5 83.5t122.5 204.5q2 10 -7 10zM689 462l-93 81q-3 2 -5 0.5t-2 -3.5v-54h-214q-10 0 -17.5 -7.5t-7.5 -18t7.5 -18t17.5 -7.5h214v-57q0 -3 2 -4t5 0l93 81q2 1 2 3.5t-2 3.5zM352 301l93 -81q3 -1 5 0.5t2 3.5v49h214q10 0 17.5 7.5t7.5 18t-7.5 18t-17.5 7.5
h-214v62q0 3 -2 4t-5 0l-93 -81q-2 -2 -2 -4t2 -4z" />
    <glyph glyph-name="fangdajing" unicode="&#xe601;" 
d="M870 96l-176 176l-6 6q47 72 47 159q0 120 -85.5 205.5t-206.5 85.5t-206.5 -85.5t-85.5 -206t85.5 -206t206.5 -85.5q86 0 159 47q3 -5 5 -7l177 -176q17 -18 42.5 -18t43.5 18t18 43.5t-18 43.5zM442.5 237q-82.5 0 -141 58.5t-58.5 141t58.5 141t141 58.5t141.5 -58.5
t59 -141t-59 -141t-141.5 -58.5z" />
    <glyph glyph-name="licai" unicode="&#xe605;" horiz-adv-x="1032" 
d="M560 164h-97q-85 0 -164 24t-131 57.5t-91.5 68.5t-58 57.5t-18.5 23.5q1 -3 7.5 -35t13.5 -57.5t20 -67.5t34 -92t49 -103q13 -27 32 -49.5t38.5 -39t45 -29.5t47 -21t49 -14t46 -9t44 -4.5t36.5 -1.5t30.5 0.5l19.5 0.5q1 0 17.5 -0.5t29 -0.5t37 1.5t44 4t46.5 8.5
t49 14t47.5 21t45.5 29t39 38.5t33 49.5q33 65 57.5 129t34.5 100.5t20 78t11 47.5l-5.5 -7.5t-18 -20.5t-29.5 -30t-41 -36.5t-52 -38.5t-63.5 -36.5t-73.5 -30.5t-85 -21t-95 -8zM110 347q69 -58 153 -91q105 -39 238 -39q50 0 94.5 4.5t78.5 10.5t67 18.5t54.5 21.5
t46 27.5t37 28.5t32 32t26.5 30.5t25 31.5q44 55 50 62q10 9 7 19q-4 12 -13 18q-6 3 -12.5 5.5t-29 4t-45 -4.5t-57 -27t-68.5 -57q-1 6 -11 31q-7 17 -24 52q-12 24 -33 49q-27 31 -42 44q-23 20 -53 33q-9 5 -16 7q-8 4 -15 6q-9 5 -15 5q-3 1 -8.5 2t-7.5 2q-22 5 -31 5
h-35q-32 0 -62 -7q-17 -3 -31 -9q-3 -1 -13 -4.5t-15 -6.5q-30 -13 -53 -33q-24 -20 -44 -44q-36 -41 -58 -104q-2 -11 -6 -28q-32 31 -64 49t-54 23t-43 4t-28.5 -3.5t-11.5 -4.5q-10 -3 -13 -13q-4 -11 0 -18q0 -3 9 -20.5t35 -50.5t59 -61zM79 468q61 -5 126 -51l9 -4
q0 -2 -1 -6.5t-1 -6.5t-1 -6.5t-1 -6.5q0 -5 -1.5 -15t-1.5 -14q5 9 12.5 25.5t12.5 25.5q17 30 28 46q28 43 66 81q33 33 82 56q46 19 95 19h24q5 0 12.5 -1t11.5 -1q3 0 7 -1l4 -1q3 0 7 -1l4 -1q2 -1 6 -2t6 -3q2 -1 5 -2l6 -2q44 -19 83 -55q14 -11 36 -38
q5 -6 16 -20.5t17 -20.5q11 -16 28 -47q5 -8 13.5 -24.5t13.5 -23.5q0 11 -5 28q0 3 -1 7t-1 6.5t-1 7t-1 6.5q4 0 9 4q62 53 128 60h13l-26 -33q-19 -26 -30 -39t-33.5 -36.5t-42.5 -36.5t-53 -29.5t-69 -25t-86.5 -15t-109.5 -6.5q-219 0 -359 117q-47 39 -80 91
q13 -5 24 -5v0zM501 746q1 -2 2 -5.5t2 -5.5t3.5 -5.5t3.5 -5.5q1 2 3 5.5t3 5.5q5 9 5 11q4 13 6 22q7 20 7 42t-7 42q-4 13 -6 22q-1 2 -2.5 5.5t-2.5 5.5q-2 2 -6 11q-1 -2 -3.5 -5.5t-3.5 -5.5q-4 -9 -4 -11q-5 -13 -7 -22q-4 -13 -4 -42t4 -44q0 -10 7 -20zM633 709
q7 2 20 11q18 8 35 26q17 17 27 33q2 3 5 10t6 10q1 2 2 5.5t2 5.5q2 4 2 13q-2 0 -6.5 -1t-6.5 -1q-2 -1 -5.5 -2t-5.5 -2q-7 -3 -20 -11q-13 -7 -33 -27q-16 -16 -26 -33q-3 -3 -6 -10t-5 -10q-2 -2 -3 -5.5t-2 -5.5q-2 -4 -2 -13q2 0 6.5 1t6.5 1q1 0 2 0.5t3 2t4 2.5z
M300 799q2 -7 11 -20q7 -13 26 -33q17 -17 34 -26q3 -3 9.5 -6t9.5 -5t6 -3t5 -2q5 -2 14 -2q0 2 -1.5 6.5t-1.5 6.5q-1 2 -2 5.5t-2 5.5q-2 3 -6 9.5t-5 8.5q-7 13 -26 33q-17 16 -34 26q-3 3 -9.5 6t-9.5 5q-3 1 -6 2.5l-5 2.5q-5 2 -14 2q0 -2 1.5 -6.5t1.5 -6.5z" />
    <glyph glyph-name="xiaomi" unicode="&#xe720;" 
d="M512 384zM102 384q0 -111 55 -205.5t149.5 -149.5t205.5 -55t205.5 55t149.5 149.5t55 205.5t-55 205.5t-149.5 149.5t-205.5 55t-205.5 -55t-149.5 -149.5t-55 -205.5zM651 509h57v-250h-57v250zM428 408h57v-149h-57v149zM539 509h-223v-250h57v193h132q14 0 24 -10
t10 -24v-159h57v193q0 24 -16.5 40.5t-40.5 16.5z" />
    <glyph glyph-name="jiudianzhusu" unicode="&#xe6b4;" 
d="M445 388h48v-47h-48v47zM353 481h47v-47h-47v47zM445 481h48v-47h-48v47zM445 575h48v-47h-48v47zM353 575h47v-47h-47v47zM517.5 836q-105.5 0 -195 -52t-141.5 -141.5t-52 -195.5q0 -147 97 -256t240 -128l51 -77l51 77q143 19 240 128t97 256q0 106 -52 195.5
t-141 141.5t-194.5 52zM517 247h-187v375h187v-375zM541 503h164v-21h-164v21zM705 247h-47v82h-70v-82h-47v209h164v-209zM353 388h47v-47h-47v47z" />
    <glyph glyph-name="che1" unicode="&#xe602;" 
d="M236.5 230q-39.5 0 -68 -28t-28.5 -67.5t28.5 -68t68 -28.5t67.5 28.5t28 68t-28 67.5t-67.5 28zM1002 168l-5 23q-3 15 -18 22h-81q27 -35 27 -79q0 -9 -2 -20h37q26 0 35.5 13.5t6.5 40.5zM793.5 230q-39.5 0 -67.5 -28t-28 -67.5t28 -68t67.5 -28.5t67.5 28.5t28 68
t-28 67.5t-67.5 28zM163 243q26 17 58 21h32v0q30 -4 56 -21h412q33 22 73 22t73 -22h99l-11 61q-6 27 -22.5 38t-54.5 16l-182 26l-26 19.5t-28.5 21t-26 16.5t-32 16.5t-31.5 10t-39 7.5l-6 10q-12 26 -39 26h-187q-29 0 -40 -24l-5 -12q-62 -5 -119.5 -53.5t-57.5 -81.5
v-97h104zM878 317h51q3 -6 6 -17l7 -36h-26q-25 0 -36 20l-9 18q-3 7 0 11t7 4zM653 373l-359 1l47 73h132q40 0 72.5 -10t52 -22.5t55.5 -41.5zM260 479q5 11 21 11h187q15 0 20 -13l1 -1v0h-230zM247 447h52l-46 -73h-76v-1h-61q17 24 55.5 49t75.5 25zM80 317h36
q8 0 11.5 -7t-3.5 -16l-24 -30h-20v53zM55 213q-9 -13 -10 -31v-21q0 -19 12 -27t43 -16q4 -1 6 -2q-1 10 -1 18q0 44 26 79h-76v0zM341 213q26 -35 26 -79q0 -9 -2 -20h300q-2 11 -2 20q0 44 27 79h-349z" />
    <glyph glyph-name="jipiao" unicode="&#xe612;" 
d="M512 889q-103 0 -196.5 -40t-161 -107.5t-107.5 -161t-40 -196.5t40 -196.5t107.5 -161t161 -107.5t196.5 -40t196.5 40t161 107.5t107.5 161t40 196.5t-40 196.5t-107.5 161t-161 107.5t-196.5 40zM672 243l-13 -8l-7 -117q0 -11 -7 -18t-17 -7t-17.5 7t-7.5 18l1 4
l-62 174q69 44 125 84l-7 -116q11 6 16 -4q6 -11 -4 -17zM335 268q-4 -3 -8 -4l-16 -67q-2 -10 -10.5 -15t-18.5 -2l-11 3q3 45 -22.5 89.5t-65.5 63.5l3 12q2 10 10.5 15t18.5 2l102 -31q1 0 1.5 -0.5l0.5 -0.5q72 60 147 115l-150 179l-4 2q-9 5 -11.5 15t2.5 19
t14.5 11.5t18.5 -2.5l117 -60l17 10q11 6 17 -5t-5 -17l-3 -1l119 -61q200 126 239 64q30 -49 -163 -164q-147 -87 -339 -170z" />
    <glyph glyph-name="caipiao" unicode="&#xe603;" 
d="M511.5 811q-115.5 0 -214 -57t-155.5 -155t-57 -214t57 -214t155.5 -155t214 -57t214 57t155.5 155t57 214t-57 214t-155.5 155t-214 57zM602 492q26 14 46 30q21 16 42 42q9 11 21 3l1 -1q11 -9 3 -20q-23 -29 -48 -48q-26 -20 -51 -33q-5 -2 -12 -1q-6 3 -8 9v0
q-6 12 6 19zM596 357q29 15 52 35q25 21 47 51q8 11 20 3q6 -4 7 -10q0 -7 -3 -11q-23 -32 -52 -56q-22 -19 -57 -38q-5 -3 -11 -1q-7 2 -9 8q-7 12 6 19zM342 558q0 6 4 10.5t10 4.5h178q6 0 10 -4.5t4 -10.5v-1q0 -6 -4 -10t-10 -4h-178q-6 0 -10 4.5t-4 9.5v1zM548 506
q-7 -37 -23 -73q-3 -6 -8 -8q-6 -2 -12 1h-1q-13 7 -6 19q13 29 21 68q3 14 17 11q7 -1 10 -6t2 -12zM459 450l-1 -1q-6 -1 -11 2.5t-7 8.5l-11 45q-2 6 1 11.5t9 6.5h2q5 2 10 -1.5t7 -9.5l12 -44q3 -14 -11 -18zM384 430h-1q-5 -1 -10.5 2t-6.5 9l-14 54q-1 6 2 11t9 7h1
q6 1 11 -2t7 -9l13 -54q4 -14 -11 -18zM559 379q0 -6 -4.5 -10.5t-10.5 -4.5h-31l37 -165q2 -5 -1.5 -10.5t-9.5 -6.5v0q-6 -2 -11 1.5t-7 9.5l-38 169q-1 0 -1 2h-22v-174q0 -6 -4.5 -10.5t-10.5 -4.5v0q-6 0 -10.5 4.5t-4.5 10.5v174h-22v-1q-4 -54 -15 -97
q-10 -42 -27 -76q-6 -13 -19 -7l-1 1q-5 2 -7 8t0 11q17 36 25 71q11 40 14 90h-32q-6 0 -10.5 4.5t-4.5 10.5v1q0 5 4.5 9.5t10.5 4.5h84v23q0 6 4.5 10.5t10.5 4.5v0q6 0 10.5 -4.5t4.5 -10.5v-23h84q6 0 10.5 -4.5t4.5 -9.5v-1zM727 309q-27 -41 -63 -75q-33 -30 -69 -50
q-14 -7 -21 6v1q-7 12 6 19q33 19 64 47t59 69q7 11 19 4q6 -3 7 -10q2 -6 -2 -11z" />
    <glyph glyph-name="qiche" unicode="&#xe675;" 
d="M1001 207l-26 233q-3 35 -30 59.5t-63 24.5h-12l-30 200q-5 34 -31.5 56.5t-61.5 22.5h-470q-35 0 -61.5 -22.5t-31.5 -56.5l-30 -200h-12q-36 0 -62 -23.5t-31 -60.5l-26 -233q-3 -42 24 -72q30 -30 69 -30h24v-93q0 -20 13.5 -33.5t32.5 -13.5h93q19 0 33 13.5t14 33.5
v93h372v-93q0 -20 14 -33.5t33 -13.5h93q19 0 32.5 13.5t13.5 33.5v93h24q39 0 69 30q28 30 24 72zM275 689q1 9 7.5 15t15.5 6h428q9 0 15.5 -6t7.5 -15l19 -140q0 -14 -5 -18q-10 -7 -18 -7h-466q-11 0 -18 7q-8 8 -5 18zM279.5 244q-29.5 0 -50 20.5t-20.5 50t20.5 49.5
t50 20t49.5 -20t20 -49.5t-20 -50t-49.5 -20.5zM675 314.5q0 29.5 20 49.5t49.5 20t50 -20t20.5 -49.5t-20.5 -50t-50 -20.5t-49.5 20.5t-20 50z" />
    <glyph glyph-name="xianhua" unicode="&#xe604;" 
d="M511 864q97 0 185.5 -38t152.5 -102t102 -152.5t38 -186t-38 -186t-102 -152.5t-152.5 -102t-186 -38t-186 38t-152.5 102t-102 152.5t-38 186t38 186t102 152.5t152.5 102t186.5 38v0zM487 334q8 9 7 17t-8 8.5t-16 -7.5l-109 -109q4 22 2 35h1q-1 15 -5 27
q22 95 -35 126q-31 16 -69 12q-2 0 -4 -1v0q-5 -2 -5 -7q3 -81 40 -112l3 -3q11 -7 29 -14t24 -15t6 -29q0 -7 -1 -12q-1 -12 -4 -25l-134 -135q-10 -10 -1.5 -18.5t18.5 1.5l124 124l1 1l35 35h0.5h0.5q23 7 47 10q5 1 12 1q20 0 28.5 -6t15.5 -24t14 -29q1 -2 3 -3
q31 -37 112 -39q5 0 7 4q1 3 1 5q5 38 -12 69q-30 56 -126 34q-12 4 -27 4v0q-20 2 -57 -6zM852 605v0q-90 49 -143 54q1 -16 1 -30q38 -11 106 -48q20 17 36 24v0zM691 638v0q0 51 -15 102q-7 -13 -19 -28q-26 -33 -67 -63q10 1 47 -3t54 -8v0zM417 521v0q-5 -47 43 -105
q53 -65 112 -96q52 -27 93 -10q37 16 67 73q8 14 19 50t21 53q13 20 34 35t41 18q-127 81 -243 88q-35 2 -75.5 -8t-74.5 -35.5t-37 -62.5z" />
    <glyph glyph-name="xiexue" unicode="&#xe61c;" 
d="M838 355l5 -1zM912 774h-314q-20 0 -34 -14t-14 -34v-178q0 -83 -59.5 -142.5t-142.5 -59.5h-5q-117 -5 -197.5 -89t-80.5 -201v-10v-5q0 -19 14 -33t33 -14h800q19 0 33 14t14 33v8v7v670q0 20 -14 34t-33 14zM585 487h65q9 0 15.5 6.5t6.5 15.5t-6.5 15t-15.5 6h-58
q1 11 1 18v51h127q9 0 15 6t6 15t-6 15.5t-15 6.5h-127v85q0 5 5 5h314q4 0 4 -5v-498h-339h-2q-40 68 -122 98q49 23 84 65t48 95zM912 37h-800q-4 0 -4 5v2v2v10q0 100 68.5 171.5t168.5 75.5h3h5q9 0 20 -1t32 -5t39.5 -11.5t40.5 -22t38 -34.5t28.5 -51t15.5 -69
q0 -8 6.5 -14t14.5 -6h2q9 1 14.5 7.5t5.5 15.5q-4 40 -15 74h321v-132l-1 -7l1 -6q0 -4 -4 -4z" />
    <glyph glyph-name="daohang" unicode="&#xe606;" 
d="M128 653h768v-26h-768v26zM128 420h768v-26h-768v26zM128 141h768v-26h-768v26z" />
    <glyph glyph-name="bangong" unicode="&#xe608;" 
d="M59 724h896v-448h-896v448zM963 276v-51q0 -28 -19.5 -47.5t-47.5 -19.5h-770q-28 0 -47.5 19.5t-19.5 47.5v51h904zM633 91v-6q0 -28 -20 -47.5t-48 -19.5h-108q-28 0 -47.5 19.5t-19.5 47.5v6q0 28 19.5 47.5t47.5 19.5h108q28 0 48 -19.5t20 -47.5zM896 136h-331
q-9 0 -15.5 6.5t-6.5 15.5t6.5 15.5t15.5 6.5h331q19 0 32 13.5t13 31.5v454q0 19 -13 32t-32 13h-770q-18 0 -31.5 -13t-13.5 -32v-454q0 -18 13.5 -31.5t31.5 -13.5h331q9 0 15.5 -6.5t6.5 -15.5t-6.5 -15.5t-15.5 -6.5h-331q-37 0 -63 26t-26 63v454q0 37 26 63.5
t63 26.5h770q37 0 63.5 -26.5t26.5 -63.5v-454q0 -37 -26.5 -63t-63.5 -26zM565 -4q-9 0 -15.5 6.5t-6.5 15.5t6.5 15.5t15.5 6.5q19 0 32 13.5t13 31.5v6q0 18 -13 31.5t-32 13.5h-108q-19 0 -32 -13.5t-13 -31.5v-6q0 -18 13 -31.5t32 -13.5q9 0 15.5 -6.5t6.5 -15.5
t-6.5 -15.5t-15.5 -6.5q-37 0 -63.5 26t-26.5 63v6q0 37 26.5 63t63.5 26h108q37 0 63.5 -26t26.5 -63v-6q0 -37 -26.5 -63t-63.5 -26zM747 -4h-472q-9 0 -15.5 6.5t-6.5 15.5t6.5 15.5t15.5 6.5h472q9 0 15.5 -6.5t6.5 -15.5t-6.5 -15.5t-15.5 -6.5v0zM963 254h-904
q-9 0 -15.5 6.5t-6.5 15.5t6.5 15.5t15.5 6.5h904q10 0 16.5 -6.5t6.5 -15.5t-6.5 -15.5t-16.5 -6.5z" />
    <glyph glyph-name="huochepiao" unicode="&#xe89a;" 
d="M890 -5q7 -6 7 -15t-6 -15l-2 -2q-6 -6 -15 -6t-15 6l-122 122h-449l-122 -122q-6 -6 -15 -6t-15 6l-2 2q-6 6 -6 15t6 15l91 90h-54q-18 0 -30.5 12.5t-12.5 30.5v597q0 36 25 61t61 25h597q36 0 60.5 -25t24.5 -61v0v-597q0 -18 -12.5 -30.5t-29.5 -12.5h-54l90 -90v0z
M171 128h683v597q0 18 -12.5 30.5t-30.5 12.5h-597q-18 0 -30.5 -12.5t-12.5 -30.5v-597zM299 299q18 0 30.5 -12.5t12.5 -30.5t-12.5 -30.5t-30.5 -12.5v0q-18 0 -30.5 12.5t-12.5 30.5t12.5 30.5t30.5 12.5v0v0zM726 299q17 0 29.5 -12.5t12.5 -30.5t-12.5 -30.5
t-29.5 -12.5v0q-18 0 -30.5 12.5t-12.5 30.5t12.5 30.5t30.5 12.5v0v0zM683 43q9 0 15 -6.5t6 -15.5v0q0 -9 -6 -15t-15 -6v0h-341q-9 0 -15.5 6.5t-6.5 14.5v0q0 9 6.5 15.5t15.5 6.5h341v0zM171 384h683v-43h-683v43z" />
    <glyph glyph-name="shuidianmei" unicode="&#xe62c;" 
d="M512 384zM32 384q0 -130 64.5 -240.5t175 -175t240.5 -64.5t240.5 64.5t175 175t64.5 240.5t-64.5 240.5t-175 175t-240.5 64.5t-240.5 -64.5t-175 -175t-64.5 -240.5zM691 454l-179 263q-5 5 -13 5t-13 -5l-179 -256q-37 -54 -40.5 -119.5t21 -119.5t76 -92t116.5 -40
h38q65 2 116.5 39t76.5 90t21 117.5t-41 117.5zM608 371l-128 -160q-5 -4 -9 -1.5t-4 8.5l13 83q0 5 -1 5.5t-5 0.5h-96q-5 5 -5 9t5 4l134 166q5 5 9 2t4 -8l-26 -90q0 -6 13 -6h96q5 0 5 -4t-5 -9z" />
    <glyph glyph-name="tianjiahaoyou" unicode="&#xe6e5;" 
d="M800 509q0 120 -84 204t-204 84t-204 -84t-84 -204q0 -79 40 -146.5t107 -103.5q-92 -36 -156.5 -112t-83.5 -176q-2 -12 5 -24t21 -14h6q27 0 32 25q22 113 110 186.5t204 76.5h6q118 0 201.5 85t83.5 203zM288 509q0 93 65 158.5t159 65.5t159 -65.5t65 -158.5
q0 -91 -64.5 -156.5t-156.5 -67.5h-9q-92 5 -155 70t-63 154zM864 96h-64v64q0 14 -9 23t-23 9t-23 -9t-9 -23v-64h-64q-14 0 -23 -9t-9 -23t9 -23t23 -9h64v-64q0 -14 9 -23t23 -9t23 9t9 23v64h64q14 0 23 9t9 23t-9 23t-23 9z" />
    <glyph glyph-name="zhubao" unicode="&#xe609;" horiz-adv-x="1356" 
d="M502 387l361 2l-174 -390zM543 529l275 -3l49 -94l-357 2zM465 437l-217 81l116 77l140 -64zM248 471l205 -82l222 -387zM915 390l192 89l-406 -475zM910 437l-54 100l124 62l107 -80zM539 576l-47 11l-88 44l104 34h339l102 -39l-98 -42l-34 -8h-278zM539 576z" />
    <glyph glyph-name="paotui" unicode="&#xe645;" 
d="M278 763.5q0 -31.5 22.5 -54t54.5 -22.5t54 22.5t22 54t-22 54t-54 22.5t-54.5 -22.5t-22.5 -54zM118.5 649q-2.5 1 -8.5 2.5t-15.5 1t-17 -4t-12 -14.5t-2.5 -29q4 -28 42 -64t72.5 -58t41.5 -22q7 -1 22 3t28 12q83 38 98 53l71 -175q-5 -1 -13 -3.5t-30 -13t-39.5 -25
t-34 -42.5t-21.5 -62l3 -178q-2 0 -4.5 -0.5t-10.5 -2.5t-15 -7t-15.5 -16t-13.5 -26q-7 -18 1 -30t24.5 -14.5t32.5 -1.5t24 6q4 2 16 6t26.5 12.5t38.5 28.5l-3 223q1 2 4 5t12.5 11t21.5 15t32.5 13t43.5 7q0 -2 -0.5 -6.5t0.5 -18t3 -25.5t8.5 -27t16 -26t26.5 -19
t39 -9q47 -3 87 -3t56 1l16 2l28 -31q1 -3 1.5 -7.5t4.5 -16t9.5 -20t15 -15.5t20.5 -6q37 2 28 29l-1 3l-1 70q1 2 0.5 6t-5 15t-13.5 20t-28.5 19t-47.5 14q-36 4 -69.5 4.5t-59 2.5t-40.5 22.5t-16 64.5q-2 90 -20.5 155.5t-57.5 127.5q69 5 115 -8q14 -3 22 -9t15 -20.5
t10.5 -27.5t12 -45t17.5 -58l16 22l31 5l13 24l35 16q-82 107 -90 123q-11 23 -37 38q-20 11 -59 16q-78 10 -138 10q-10 0 -33 -5t-73.5 -28.5t-96.5 -62.5q-46 -40 -78 -12q-8 7 -20.5 21t-13.5 15q-12 11 -23 24t-16.5 19t-8 7zM710 389l129 75l75 -129l-129 -75z
M859 476l22 13l74 -127l-23 -13zM668 365l22 13l74 -127l-22 -13z" />
    <glyph glyph-name="youxi1" unicode="&#xe651;" 
d="M425 488h-61v92q0 21 -12 35.5t-29 14.5t-29 -14.5t-12 -35.5v-92h-61q-15 0 -25 -18t-10 -43t10 -42.5t25 -17.5h61v-93q0 -20 12 -35t29 -15t29 15t12 35v93h61q14 0 24 17.5t10 42.5t-10 43t-24 18zM718.5 488q17.5 0 30 18t12.5 44t-12.5 44t-30 18t-29.5 -18
t-12 -44t12 -44t29.5 -18zM636.5 488q-17.5 0 -29.5 -18t-12 -44t12 -44t29.5 -18t30 18t12.5 44t-12.5 44t-30 18zM713 872q-4 1 -9 1h-377h-0.5h-0.5q-83 -1 -153.5 -62t-111.5 -166t-41 -228.5t41 -228.5t111.5 -166t153.5 -62h0.5h0.5h377q4 0 9 1q81 5 148 67t106 165
t39 223.5t-39 223.5t-106 165t-148 67zM699 82h-12h-347h-12q-61 0 -113 45t-82.5 122t-30.5 168t30.5 168t82.5 121.5t113 44.5h4h3h357h3h4q61 0 113 -44.5t82 -121.5t30 -168t-30 -168t-82 -122t-113 -45zM718.5 367q-17.5 0 -29.5 -18.5t-12 -44t12 -44t29.5 -18.5
t30 18.5t12.5 44t-12.5 44t-30 18.5zM800.5 488q-17.5 0 -29.5 -18t-12 -44t12 -44t29.5 -18t30 18t12.5 44t-12.5 44t-30 18z" />
    <glyph glyph-name="zhaoxiangji" unicode="&#xe641;" 
d="M512 608q-94 0 -159 -65t-65 -159t65 -159t159 -65t159 65t65 159t-65 159t-159 65zM512 208q-72 0 -124 52t-52 124t52 124t124 52t124 -52t52 -124t-52 -124t-124 -52zM768 525q0 -21 15 -36t36 -15t36 15t15 36t-15 36t-36 15t-36 -15t-15 -36zM864 672h-96l-22 67
q-5 12 -17.5 20.5t-24.5 8.5h-384q-14 0 -25.5 -8t-16.5 -21l-22 -67h-96q-41 0 -68.5 -27.5t-27.5 -68.5v-448q0 -40 28.5 -68t67.5 -28h704q41 0 68.5 27.5t27.5 68.5v448q0 41 -27.5 68.5t-68.5 27.5zM912 128q0 -19 -14.5 -33.5t-33.5 -14.5h-704q-19 0 -33.5 14.5
t-14.5 33.5v448q0 19 14.5 33.5t33.5 14.5h96h35l10 32l22 64h378l22 -64l10 -32h35h96q19 0 33.5 -14.5t14.5 -33.5v-448z" />
    <glyph glyph-name="meishi" unicode="&#xe6c0;" 
d="M124 469q6 -9 16 -9v0v0q5 0 9 3q7 4 8.5 11.5t-2.5 13.5q-2 3 -6 10t-11 25.5t-9.5 35.5t1 39t16.5 39q40 50 14 120q-12 32 -32 58q-5 5 -12.5 6t-13 -4t-6.5 -12.5t4 -12.5q2 -3 6.5 -9t12.5 -22t12 -31.5t2 -35t-15 -35.5q-18 -22 -23.5 -50t-2.5 -50t11 -45
t13 -31.5t8 -13.5zM539 289l-31 62l-31 -62l-69 -11l50 -48l-12 -70l62 33l62 -33l-11 70l50 48zM245 468v0q5 -8 15 -8q6 0 10 3q6 4 8 11t-3 13l-5.5 11t-10.5 25t-10 35.5t1 39t17 38.5q40 51 14 121q-12 32 -32 57q-5 6 -12.5 6.5t-13.5 -4t-6.5 -12t4.5 -13.5
q2 -3 6.5 -9t12.5 -22t12 -31.5t1.5 -35t-14.5 -35.5q-18 -22 -23.5 -50t-2.5 -49.5t11 -44.5t13 -31.5t8 -14.5zM69 32q0 -36 21 -62q22 -28 56 -28l725 -3v0q33 0 56 27q21 26 21 62t-21 62t-52 28q-1 133 -87 234.5t-215 124.5q22 25 22 57q0 35 -25 59.5t-60 24.5
t-59.5 -24.5t-24.5 -59.5q0 -32 20 -56q-130 -21 -218 -122t-90 -236q-29 -4 -48 -27q-21 -25 -21 -61zM124 66q10 12 22 12l474 -3q10 0 16 6.5t6 15.5t-6.5 15.5t-15.5 6.5l-438 2q2 132 97 225.5t228 93.5h1q134 -1 228.5 -95t95.5 -227h-68h-1q-9 0 -15 -6t-6 -15
t6 -15.5t15 -6.5l109 -1q12 0 22 -12q11 -14 11 -34t-12 -34q-9 -12 -22 -12l-725 4q-13 0 -22 11q-12 14 -11.5 34.5t11.5 34.5zM880 473q5 -8 15 -8q5 0 10 3q6 4 7.5 11.5t-2.5 13.5q-2 3 -5.5 10t-10.5 25t-10 35.5t1 39.5t17 39q40 50 14 120q-12 32 -33 57q-5 6 -12 7
t-13 -4t-6.5 -12.5t3.5 -13.5q3 -2 7 -8t12.5 -22t12.5 -31.5t1.5 -35.5t-14.5 -35q-18 -23 -24 -50.5t-3 -49.5t11.5 -45t13 -31.5t8.5 -14.5zM759 474v0q5 -8 15 -8q6 0 10 3q6 4 7.5 11t-2.5 13q-2 4 -5.5 10.5t-10.5 25t-10 36t1 39t17 38.5q40 50 14 121q-12 32 -33 57
q-4 6 -11.5 6.5t-13.5 -4t-6.5 -12t4.5 -13.5q2 -3 6.5 -9t12.5 -22t12 -31.5t1.5 -35t-14.5 -35.5q-18 -22 -23.5 -50t-2.5 -49.5t11 -44.5t13 -31.5t8 -14.5z" />
    <glyph glyph-name="triangle-copy-copy-copy" unicode="&#xe60b;" 
d="M748 463l-236 -236l-236 236h472z" />
    <glyph glyph-name="hongbao" unicode="&#xe613;" 
d="M160 768h704q14 0 23 -9.5t9 -22.5v-704q0 -13 -9 -22.5t-23 -9.5h-704q-13 0 -22.5 9.5t-9.5 22.5v704q0 13 9.5 22.5t22.5 9.5zM512 377l-48 49l48 48l48 -48zM672 618h-320q-13 0 -22.5 -9.5t-9.5 -22.5v-43q37 -57 102 -84q11 28 35.5 45.5t55 17.5t55 -17.5
t34.5 -45.5q65 27 102 84v43q0 13 -9 22.5t-23 9.5zM608 427v-0.5v-0.5q0 -40 -28 -68t-67.5 -28t-68 28t-28.5 68v0.5v0.5q-55 21 -96 64v-305q0 -14 9.5 -23t22.5 -9h320q14 0 23 9t9 23v305q-40 -43 -96 -64z" />
    <glyph glyph-name="zaixianbangzhu" unicode="&#xe63b;" 
d="M605 459q-12 77 -68 132.5t-131 64.5q-103 13 -179.5 -58t-76.5 -176q0 -55 23 -103t63 -81q-98 -38 -161.5 -122.5t-74.5 -199.5q-1 -18 10 -31t28 -13q15 0 25.5 10t12.5 25q11 127 95 194.5t208 67.5t208 -67.5t95 -194.5q1 -14 12 -24.5t25 -10.5q17 0 28.5 13
t9.5 31q-10 115 -73.5 199.5t-161.5 122.5q46 39 69 97.5t14 123.5zM378.5 276q-58.5 0 -100 43t-41.5 103t41.5 103t100 43t100 -43t41.5 -103t-41.5 -103t-100 -43zM468 761v-35q0 -16 -13 -26t-32 -10t-30.5 12.5t-11.5 29.5v41q0 51 37 87t87 36h395q50 0 87 -36.5
t37 -87.5v-204q0 -51 -37 -87.5t-87 -36.5h-59l30 14l-138 -163q-20 -24 -47 -11t-24 43l20 164l40 -5v-42h-20q-16 0 -28 12t-12 29v1v1q0 16 12 28t28 13h20q18 0 30 -14.5t10 -32.5l-20 -164l-70 33l140 173q12 14 30 14h59q16 0 27.5 11.5t11.5 28.5v184v1
q0 16 -11 27.5t-27 12.5h-395q-16 -1 -27.5 -12.5t-11.5 -27.5v-1v0z" />
    <glyph glyph-name="waimai" unicode="&#xe634;" 
d="M972 331q0 48 -32 72t-85 24h-183q-94 0 -121 -104q-2 -8 -5.5 -18t-3.5 -11v2v2h-77q-3 3 -35 48t-57 60l69 156q28 16 44.5 43.5t16.5 60.5q0 49 -34.5 81t-84.5 32q-16 0 -21 -0.5t-17 -2.5t-19.5 -9t-15.5 -19h-110q-21 0 -27 -9t-6 -35v-79q0 -27 6 -40t27 -13h37
l-80 -166q-48 -29 -76.5 -78t-28.5 -107q0 -89 62.5 -154t150.5 -65q55 0 104.5 30.5t80.5 71.5h105q31 -42 80.5 -72t104.5 -30q88 0 150.5 63.5t62.5 152.5q0 32 -20 81l38 2v30zM266 148q-30 0 -51.5 21t-21.5 51.5t21.5 51.5t51.5 21t51.5 -21t21.5 -51.5t-21.5 -51.5
t-51.5 -21zM741 148q-30 0 -51.5 21t-21.5 51.5t21.5 51.5t51.5 21t51.5 -21t21.5 -51.5t-21.5 -51.5t-51.5 -21zM940 613q0 16 -11.5 27.5t-27.5 11.5h-292q-16 0 -27.5 -11.5t-11.5 -27.5v-115q0 -16 11.5 -27.5t27.5 -11.5h292q16 0 27.5 11.5t11.5 27.5v115zM940 693
q0 16 -11.5 27.5t-27.5 11.5h-292q-16 0 -27.5 -11.5t-11.5 -27.5v-115q0 -16 11.5 -27.5t27.5 -11.5h292q16 0 27.5 11.5t11.5 27.5v115z" />
    <glyph glyph-name="jiadian" unicode="&#xe6d2;" 
d="M512 896q-139 0 -257 -68.5t-186.5 -186.5t-68.5 -257t68.5 -257t186.5 -186.5t257 -68.5t257 68.5t186.5 186.5t68.5 257t-68.5 257t-186.5 186.5t-257 68.5zM757 105q0 -18 -13 -31t-31 -13h-386q-18 0 -31 13t-13 31v530q0 18 13 31t31 13h386q18 0 31 -13t13 -31
v-530v0zM713 645h-386q-9 0 -9 -10v-80h404v80q0 10 -9 10zM615 584.5q-10 -5.5 -20 0t-10 17t10 17t20 0t10 -17t-10 -17zM685 584.5q-10 -5.5 -19.5 0t-9.5 17t9.5 17t19.5 0t10 -17t-10 -17zM511 467q-62 0 -106 -44t-44 -106t44 -105.5t106 -43.5t105.5 43.5t43.5 105.5
t-43.5 106t-105.5 44zM451 266q-4 -2 -8 -2q-11 0 -15 10q-15 30 -7 63q2 9 5 17q3 7 10 9.5t13.5 -0.5t9 -10t-0.5 -13q-2 -5 -4 -11q-5 -20 5 -40q3 -6 0.5 -13t-8.5 -10z" />
    <glyph glyph-name="shenghuojiaofei" unicode="&#xe617;" 
d="M488 114l-12 47l107 155h-261l204 246l69 4l-162 -205l246 14zM512 -48q-145 0 -236.5 96.5t-91.5 248.5q0 73 42 168t97.5 170.5t109.5 128t79 52.5t79 -52.5t109.5 -128t97.5 -170.5t42 -168q0 -152 -91.5 -248.5t-236.5 -96.5zM512 779q-13 -2 -46 -33t-74.5 -82.5
t-80 -111.5t-64.5 -129.5t-26 -125.5q0 -138 80.5 -223t210.5 -85t210.5 85t80.5 223q0 56 -26 125.5t-65 129.5t-80 111.5t-74.5 82.5t-45.5 33z" />
    <glyph glyph-name="tubiaozhizuomoban" unicode="&#xe63c;" 
d="M512 -128q104 0 198.5 40.5t163.5 109.5t109.5 163.5t40.5 198.5t-40.5 198.5t-109.5 163.5t-163.5 109.5t-198.5 40.5t-198.5 -40.5t-163.5 -109.5t-109.5 -163.5t-40.5 -198.5t40.5 -198.5t109.5 -163.5t163.5 -109.5t198.5 -40.5zM461 573v83h93v-83h188v-39h-188v-51
h156q-3 -29 -22 -83q-9 -24 -18.5 -44t-14.5 -28l-5 -8l304 -99q-10 -29 -23 -55q-5 -11 -13 -24t-14 -20l-5 -7l-291 138q-6 -7 -16.5 -18t-40 -34t-55.5 -35q-105 -49 -189 -25q-56 13 -86 48.5t-26 95.5q5 39 32.5 65.5t62.5 36.5t75 10q20 0 49 -5t56 -12t50.5 -14
t38 -12l14.5 -5q13 25 22 54q6 13 9 26.5t4 20.5v8h-288v28h141v55h-176v38h176v-6zM541 285q-4 -4 -10.5 -11t-26.5 -24.5t-41 -31t-51.5 -25t-59.5 -11.5q-69 0 -97 25t-28 59q0 31 25 53t84 27q80 6 199 -58zM541 285z" />
    <glyph glyph-name="fuwuzhongxin1" unicode="&#xe68b;" 
d="M855 337q1 11 1 23q3 164 -93 262q-45 46 -108 70q-5 43 -46.5 73t-99 30t-99.5 -30t-47 -73q-63 -24 -107 -70q-96 -98 -93 -261v-29q-31 -32 -19 -76q10 -39 49 -53q19 -12 41 -12q22 -98 98 -158t180.5 -60t180.5 60t98 158h3q28 0 49 17q29 17 37 48q13 48 -25 81z
M386 492q3 -5 8 -12t19.5 -24.5t31.5 -33t43.5 -33t55.5 -28.5q28 -11 84 -23q37 -7 56 -12.5t45 -20t43 -36.5l1 -1v-3q0 -25 -4 -50q-35 -55 -90.5 -89.5t-126.5 -42.5q-12 16 -38 16q-17 0 -30 -8.5t-13 -20t13 -20t30 -8.5q16 0 28 7t14 17q46 5 87 22q59 23 102 68
q7 7 13 14q-26 -79 -91 -125t-154 -46h-1q-115 0 -187.5 74.5t-72.5 192.5v15q-1 7 2 41q23 9 44 24t33.5 29t23 31t14 23.5t4.5 10.5zM441 253.5q0 -20.5 -14.5 -35t-35 -14.5t-35 14.5t-14.5 35.5v0q0 20 14.5 34.5t35.5 14.5v0q20 0 34.5 -14.5t14.5 -35zM672 254
q0 -20 -14.5 -34.5t-34.5 -14.5t-34 14.5t-14 34.5t14 34t34 14t34.5 -14t14.5 -34z" />
    <glyph glyph-name="yundong" unicode="&#xe618;" horiz-adv-x="1026" 
d="M1022 384.5q0 -102.5 -39.5 -195.5t-107 -160t-161 -107t-196 -40t-195.5 40t-160.5 107t-107.5 160t-40 195.5t40 195.5t107.5 160t160.5 107t195.5 40t196 -40t161 -107t107 -160t39.5 -195.5zM903 691q2 -8 3 -23t1 -62t-4.5 -93t-20 -110.5t-40.5 -121.5t-70 -118.5
t-104.5 -109.5t-148 -86.5t-196.5 -56.5q61 -11 95 -16.5t88 -9t89 2.5t84 21t88.5 43t86 72.5t91.5 105.5q29 42 47 107.5t20.5 143t-24.5 161.5t-85 150zM512 -128q-104 0 -198.5 40.5t-163 109t-109 163t-40.5 198t40.5 198t109 163t163 109t198.5 40.5
q130 0 242.5 -60.5t183 -165.5t83.5 -232l1 -4v0q2 -24 2 -48v-1q0 -126 -57.5 -235.5t-157.5 -180.5t-222 -89h-3v0q-35 -5 -72 -5v0zM172 28l15 -14q68 -60 152 -91.5t173 -31.5q28 0 57 3l15 2l2 14q7 36 8.5 76t-3.5 97.5t-31 117.5t-70 108l-14 15zM490 338l12 -14
q83 -89 105 -216q16 -87 2 -180l-5 -29l29 7q80 20 150 66.5t121 112.5l10 13l-330 332zM22 427l-1 -16q-1 -16 -1 -29q0 -90 32 -174t92 -152l14 -15l304 296l-18 14q-113 88 -290 88q-59 0 -117 -10zM598 443l328 -329l12 22q67 114 67 246q0 16 -2 36l-1 15l-15 3
q-164 29 -264 106l-13 10zM154 459q188 0 308 -98l13 -11l96 94l-340 342l-14 -11q-74 -55 -122.5 -133t-65.5 -168l-5 -27l27 4q52 8 103 8zM724 566l18 -14q89 -65 230 -94l29 -6l-6 29q-25 121 -106 217l-13 16zM247 797l338 -340l111 108l-14 14q-21 21 -36 43
q-30 42 -45.5 92.5t-17.5 79.5t0 56l2 19l-19 2q-27 3 -54 3q-130 0 -243 -65zM604 866l-2 -24q-6 -116 60 -210q15 -20 34 -40l13 -14l154 150l-15 14q-96 88 -222 118z" />
    <glyph glyph-name="shouye" unicode="&#xe778;" 
d="M922 337l-386 386q-10 10 -24 10t-24 -10l-386 -386l53 -53l75 75v-324h206v261h160v-261h205v317l68 -68zM237 366l1 1v-0.5v-0.5h-1z" />
    <glyph glyph-name="qianbao" unicode="&#xe614;" 
d="M751 581q-2 2 -45 23q2 3 8 8q46 43 61 86q4 11 12 38q5 36 -2 59t-28 41q-56 47 -129 17q-5 -2 -8 1q-45 42 -107.5 42t-107.5 -41q-4 -3 -8 -1q-36 16 -76 8q-39 -8 -63.5 -37.5t-19.5 -70.5q9 -74 59 -128q1 -1 21 -23l-2 -1t-3 -1q-128 -58 -208 -174t-91 -258
q-6 -95 13 -156q20 -62 68.5 -101.5t111.5 -39.5h306.5h306.5q96 0 152 82q19 27 33 89q1 4 2 5t2 1t1.5 9t0.5 28q0 117 -17 178q-57 210 -243 317zM959 81q-9 -59 -26 -84q-24 -35 -65.5 -55t-86.5 -20h-271h-270q-60 0 -107 31t-61 85q-14 56 -7 154q4 62 33.5 125.5
t74.5 116t99 95t112 68.5q0 1 -11 11t-23.5 22t-15.5 14q-24 28 -36.5 51t-16.5 55q-8 62 59 76q10 2 28 -2.5t32 -10t15 -4.5q39 37 94.5 37t94.5 -38q3 -3 8 -1q24 10 39.5 14t34.5 1.5t35 -16.5q18 -16 21.5 -32t-1.5 -41q-3 -9 -15.5 -31t-20.5 -33q-22 -29 -67 -73
l17.5 -9t38 -19.5t26.5 -14.5q47 -36 75.5 -61t59 -58t49.5 -70.5t31 -83.5q7 -26 10.5 -40.5t8.5 -38t6.5 -40.5t1.5 -38.5t-3 -41.5v0zM446 436q-3 4 -11.5 13t-15.5 16l-6 6h-50v-22t124 -128h-124v-49h124v-51h-124v-49h124v-100h50v100h125v50h-125v50h125v49h-125
l125 128v22h-50q-43 -42 -53 -52q-1 -1 -9.5 -10t-20 -21t-17.5 -17z" />
    <glyph glyph-name="shoujichongzhi" unicode="&#xe619;" 
d="M773 832h-522q-39 0 -66 -27.5t-27 -65.5v-708q0 -39 27 -66.5t66 -27.5h522q38 0 65.5 27.5t27.5 66.5v708q0 38 -27.5 65.5t-65.5 27.5zM456 776h112q8 0 13 -5.5t5 -13t-5 -13t-13 -5.5h-112q-8 0 -13.5 5.5t-5.5 13t5.5 13t13.5 5.5zM512 -7q-23 0 -39.5 16.5
t-16.5 39.5t16.5 39.5t39.5 16.5t39.5 -16.5t16.5 -39.5t-16.5 -39.5t-39.5 -16.5zM754 180h-484v503h484v-503z" />
    <glyph glyph-name="meituan" unicode="&#xe646;" 
d="M974 555q-23 18 -57.5 32t-57.5 20l-23 5q-11 15 -16 22t-15 17t-22 18q-27 15 -43.5 11.5t-16.5 -20.5q-1 -11 6 -14.5t26 -5.5q6 -1 9 -2q12 -1 21 -6.5t12 -10.5l3 -5q-38 14 -79 9t-44 -30q-3 -37 83 -24q13 1 18 -5.5t3.5 -13.5t-5.5 -12q-3 -4 -12.5 -6.5
t-30.5 -1.5t-48 8q-4 1 -26 5.5t-28.5 6t-26.5 5.5t-32 5.5t-30.5 4t-37 4t-38.5 2.5q-43 3 -92 -7t-96.5 -23.5t-72.5 -15.5q-68 -7 -145 24q-19 6 -23.5 1.5t-3 -12t5.5 -11.5q31 -28 71 -48t75 -28t65.5 -12t48.5 -4h18q-10 -36 -8 -60t10 -36l7 -13q12 10 27 18t24 12
l8 3q-68 -48 -95 -96q-29 -51 30 -52q25 -2 55 -15.5t55 -31t47 -35t34.5 -29l12.5 -11.5q2 -1 5 1t8.5 15.5t-1.5 44.5q-2 17 -13 31t-25 21t-27.5 11t-22.5 5l-9 2q30 0 127 28q11 4 22.5 9.5t21 11t19.5 12t16.5 11t12 8.5t6.5 5q14 14 0 28q-3 3 -4 5t-2 3.5t-1 4
t0.5 3.5t2.5 4l3 4.5t4.5 6t4.5 6.5q14 16 67.5 49t107.5 54q45 18 80 18t49 6q35 23 1 54z" />
    <glyph glyph-name="shouye-gouwuchehongse" unicode="&#xe61f;" 
d="M349 37v0q-28 0 -48 -19.5t-20 -47.5v0v-2q0 -28 20 -47.5t48 -19.5t47.5 19.5t19.5 47.5v2v0q0 28 -19.5 47.5t-47.5 19.5zM822 37v0q-28 0 -48 -19.5t-20 -47.5v0v-1q0 -28 20 -48t48 -20t47.5 20t19.5 48v1v0q0 28 -19.5 47.5t-47.5 19.5zM966 719q-11 13 -30.5 22
t-36.5 9v0h-677l-3 14q-4 37 -32.5 62t-65.5 25h-43q-14 0 -23.5 -9.5t-9.5 -23.5v0v-1q0 -14 9.5 -23.5t23.5 -9.5h43q11 0 20.5 -9t10.5 -21l33 -190l57 -405q5 -37 33 -62.5t65 -25.5h549v0q14 0 24 10t10 24v0v0q0 14 -10 24t-24 10h-549q-11 0 -20 8.5t-11 20.5l-5 40
l536 33q36 0 64.5 25.5t32.5 60.5l54 306q6 52 -25 86z" />
    <glyph glyph-name="errands" unicode="&#xe6f5;" 
d="M578 727q0 -29 21 -50t50.5 -21t50 21t20.5 50t-20.5 50t-50 21t-50.5 -21t-21 -50zM784 537q-11 -7 -27.5 -5t-36.5 18q-1 2 -5 4q-22 19 -38.5 31.5t-58.5 29.5t-92 24q-22 5 -112 -12q-34 -6 -52 -14t-24.5 -15t-20.5 -28t-29 -38l-54 -65q29 4 52 -5q13 -5 24.5 -19
t12.5 -21q1 5 2 13t7 29.5t14 39t23 34t33 21.5q69 18 97 10q6 -1 4 -4q0 -1 -14 -14t-29 -29.5t-30 -46.5t-19 -63q-5 -35 0.5 -78t5 -67.5t-18.5 -37.5q0 -2 -3 -4.5t-30 -5.5t-74 -1q-5 1 -16.5 1.5t-16 1t-14 0t-14 -2t-12 -4.5t-11 -8t-8.5 -12.5t-7.5 -17.5t-5 -23.5
t-3.5 -30.5q-2 -45 9 -58t33 -11q7 0 12 4t9 13.5t5.5 14t4.5 18.5t3 15q4 18 9 20t39 4q15 0 37.5 0.5t65 5.5t53.5 15q17 15 31 51t14 52q3 7 21 7.5t42.5 -15.5t32.5 -40q9 -32 6 -72.5t-2 -83.5t13 -54q9 -9 36 -20.5t52 -16t34 6.5q10 18 3 35t-31 26q-10 4 -14.5 6
t-6.5 8.5t-1.5 11.5t1.5 21.5t1 31.5q0 7 0.5 26.5t0.5 31t-2 31.5t-6.5 33.5t-14 31.5t-23 30.5t-35 24.5t-49.5 20q0 3 -1 8.5t0.5 23.5t7.5 36.5t23 46t42 54.5q67 -42 105 -57q26 -10 52.5 1t59.5 42q39 37 57 67t-3 48q-6 6 -17.5 7t-27.5 -8l-3.5 -4t-10 -10.5
t-14 -14.5t-16 -16.5l-15.5 -15.5t-12.5 -12t-8.5 -6zM315 387q-1 3 -2.5 7t-8 15t-16 19t-28 13.5t-40.5 2.5l-15 9l-71 -119l128 -76l74 115zM194 462l-65 -114l-5 -6l-20 13l70 118zM365 356l-65 -113l-6 -7l-19 14l70 118z" />
    <glyph glyph-name="koubei-activite" unicode="&#xe61a;" 
d="M863 650q0 21 -15 36t-36 15h-600q-22 0 -36.5 -14.5t-14.5 -36.5q-7 -160 0 -212q4 -33 22 -74t47.5 -83t75.5 -79.5t98 -57.5v-47q0 -12 9 -21t22 -9q30 -1 63.5 4t83 23t93 47t89.5 83.5t77 125.5q19 46 23 88q2 15 2.5 42.5t0 55.5t-1 54.5t-1.5 43.5zM687 371
q-12 8 -21 -4q-28 -40 -71.5 -63t-91.5 -23q-82 0 -140 58t-58 139q0 6 -4.5 11t-10.5 5t-11 -5t-5 -11q0 -94 67 -161t162 -67q56 0 106 26t82 73q9 12 -4 22zM699 493v0q0 -15 10.5 -25.5t25.5 -10.5t25.5 10.5t10.5 25.5v0q0 14 -10.5 24.5t-25.5 10.5t-25.5 -10.5
t-10.5 -24.5v0z" />
    <glyph glyph-name="dianying" unicode="&#xe61d;" 
d="M459 377.5q0 -21.5 15 -36.5t36 -15t36 15t15 36.5t-15 36.5t-36 15t-36 -15t-15 -36.5zM260 190q0 -46 32.5 -78.5t78.5 -32.5t78.5 32.5t32.5 78.5t-32.5 78.5t-78.5 32.5t-78.5 -32.5t-32.5 -78.5zM540 190q0 -46 32.5 -78.5t78.5 -32.5t78.5 32.5t32.5 78.5
t-32.5 78.5t-78.5 32.5t-78.5 -32.5t-32.5 -78.5zM173 454q0 -46 32.5 -78.5t78.5 -32.5t78.5 32.5t32.5 78.5t-32.5 78.5t-78.5 32.5t-78.5 -32.5t-32.5 -78.5zM629 454q0 -46 32.5 -78.5t78.5 -32.5t78.5 32.5t32.5 78.5t-32.5 78.5t-78.5 32.5t-78.5 -32.5t-32.5 -78.5z
M401 621q0 -46 32.5 -78.5t78.5 -32.5t78.5 32.5t32.5 78.5t-32.5 78.5t-78.5 32.5t-78.5 -32.5t-32.5 -78.5zM939 -43h-143q105 70 166.5 183t61.5 244q0 105 -40.5 199.5t-109 163t-163 109t-199.5 40.5t-199.5 -40.5t-163 -109t-109 -163t-40.5 -199.5t40.5 -199.5
t109 -163t163 -109t199.5 -40.5h427q17 0 29.5 12.5t12.5 30t-12.5 30t-29.5 12.5v0zM512 -43q-115 0 -213.5 57.5t-156 156t-57.5 213.5t57.5 213.5t156 156t213.5 57.5t213.5 -57.5t156 -156t57.5 -213.5t-57.5 -213.5t-156 -156t-213.5 -57.5z" />
    <glyph glyph-name="tianmao" unicode="&#xe639;" 
d="M943 896h-862q-34 0 -57.5 -22.5t-23.5 -54.5v-870q0 -32 23.5 -54.5t57.5 -22.5h862q33 0 57 22.5t24 54.5v870q0 32 -24 54.5t-57 22.5zM254.5 736.5q5.5 13.5 19 21t28.5 4.5q28 -5 34.5 -31t-15.5 -44q-3 -1 -3 -3q-3 -22 -1 -46q0 -2 3 -21v0q9 -37 17 -53v0
q21 -42 53 -69q91 -73 196 -29q70 29 104 107q13 34 15 56q4 25 1 52q0 5 -5 8q-11 9 -14.5 23t3.5 27t20.5 19.5t27.5 3.5q28 -7 34 -34q5 -27 -20 -42q-2 -2 -2 -5q0 -25 -1 -48l-2 -16q-5 -27 -13 -50q-20 -54 -61 -93q-54 -52 -126 -63q-1 0 -22 -3h-26l-3 1
q-63 4 -115 40q-65 45 -93 121q-9 26 -12 47v1.5v2.5q-3 18 -3 37q0 11 1 22q0 4 -4 6q-12 9 -16.5 23t1 27.5zM986 -17q0 -73 -61 -73h-29q11 23 11 48q0 42 -28 74t-71 39q24 -35 24 -110q0 -27 -4 -51h-84q-3 24 -3 51q0 75 24 110q-43 -7 -71 -39t-28 -74q0 -25 11 -48
h-137l7 9q4 6 3 10t-5 6l-4 2h-55q-19 -2 -8 -20l5 -7h-135q11 23 11 48q0 42 -28 74t-71 40q24 -36 24 -111q0 -27 -4 -51h-84q-4 24 -4 51q0 75 25 111q-43 -8 -71 -40t-28 -74v0q0 -25 11 -48h-27q-57 0 -63 60v21v234q4 21 10 36t13.5 23t16 12t17.5 3.5t17 -2.5t15 -6
t12.5 -7.5t8.5 -6l3 -2.5l78 -83q27 -21 64.5 -32.5t61.5 -12.5l24 -1h318q28 0 60 14t49 29l18 14l78 80q15 11 28 11.5t21.5 -6.5t15 -19.5t10 -25.5t5.5 -26t2.5 -20t0.5 -8v-206v0v0z" />
    <glyph glyph-name="logo" unicode="&#xe61e;" 
d="M712 810q-59 48 -120.5 67t-112 9t-90.5 -39.5t-61 -75.5q-5 -9 -9.5 -24.5t-6.5 -48t3.5 -66.5t28.5 -80t62 -90l2 -1q1 -2 3.5 -4.5t2.5 -3.5q18 -19 55 -51.5t58 -53t39 -55t18 -71.5q0 -49 -24 -92t-63.5 -67t-90 -26t-104.5 30q-22 15 -38 34q-7 9 -13 17.5
t-16 29.5t-13.5 41.5t-0.5 51t17 59.5t44.5 65t77.5 70q-15 15 -29.5 34.5t-34.5 54t-31 81t-7 96.5q-172 -163 -172 -376q0 -101 34.5 -187t92 -143.5t134.5 -88.5t162 -28q129 4 228.5 68.5t152 171.5t52.5 239q0 119 -59.5 239.5t-170.5 213.5z" />
    <glyph glyph-name="leida" unicode="&#xe674;" 
d="M490 805q-110 -6 -201.5 -63.5t-144.5 -152t-53 -205.5q0 -114 56 -211.5t153.5 -153.5t211.5 -56t211.5 56t153.5 153.5t56 211.5q0 110 -52.5 205t-144 152.5t-200.5 63.5h-46zM872 406h-121q-8 81 -62 141l94 76q86 -97 90 -228zM568 406v1l97 98q38 -48 42 -111z
M456 406h-138q8 68 56.5 116t115.5 56l-1 -138q-26 -11 -34 -38zM456 362q11 -27 38 -35l-4 -137q-68 8 -116 56.5t-56 115.5h138zM534 578q63 -8 109 -50l-108 -89v0zM751 655l-86 -86q-62 51 -142 55l11 120q131 -8 226 -98zM490 744v-121q-87 -8 -148 -69.5t-69 -147.5
h-121q8 137 105 233.5t232 104.5h1zM152 362h121q8 -87 69.5 -148t147.5 -69v-122q-137 9 -233.5 106t-104.5 232v1zM534 24v121q38 4 72 18q-36 10 -39 47q-16 -20 -50 -21l17 139q27 11 35 38l137 -4q-4 -29 -14 -54q31 16 58 -8q-3 3 -0.5 40.5l2.5 37.5l121 -17
q-9 -136 -106 -232.5t-232 -104.5h-1zM597 231.5q0 -26.5 19.5 -45.5t47 -19t46.5 19t19 45.5t-19 45.5t-46.5 19t-47 -19t-19.5 -45.5z" />
  </font>
</defs>
</svg>
